<svg xmlns="http://www.w3.org/2000/svg" xmlns:xlink="http://www.w3.org/1999/xlink" width="500" zoomAndPan="magnify" viewBox="0 0 375 374.999991" height="500" preserveAspectRatio="xMidYMid meet" version="1.0"><defs><g/><clipPath id="3f322dbb3a"><path d="M 132.382812 109.78125 L 242.632812 109.78125 L 242.632812 204.28125 L 132.382812 204.28125 Z M 132.382812 109.78125 " clip-rule="nonzero"/></clipPath></defs><rect x="-37.5" width="450" fill="#ffffff" y="-37.499999" height="449.999989" fill-opacity="1"/><rect x="-37.5" width="450" fill="#ffffff" y="-37.499999" height="449.999989" fill-opacity="1"/><g fill="#000000" fill-opacity="1"><g transform="translate(89.496092, 236.020662)"><g><path d="M 23.1875 -23.828125 C 23.75 -23.828125 24.238281 -23.628906 24.65625 -23.234375 C 25.082031 -22.835938 25.296875 -22.347656 25.296875 -21.765625 L 25.296875 -2.078125 C 25.296875 -1.484375 25.101562 -0.988281 24.71875 -0.59375 C 24.332031 -0.195312 23.820312 0 23.1875 0 C 22.550781 0 22.035156 -0.191406 21.640625 -0.578125 C 21.242188 -0.960938 21.046875 -1.460938 21.046875 -2.078125 L 21.046875 -15.78125 L 15.4375 -7.203125 C 15.207031 -6.929688 14.945312 -6.710938 14.65625 -6.546875 C 14.363281 -6.378906 14.054688 -6.304688 13.734375 -6.328125 C 13.441406 -6.304688 13.144531 -6.378906 12.84375 -6.546875 C 12.550781 -6.710938 12.289062 -6.929688 12.0625 -7.203125 L 6.453125 -16.078125 L 6.453125 -2.078125 C 6.453125 -1.460938 6.269531 -0.960938 5.90625 -0.578125 C 5.550781 -0.191406 5.078125 0 4.484375 0 C 3.921875 0 3.457031 -0.195312 3.09375 -0.59375 C 2.726562 -0.988281 2.546875 -1.484375 2.546875 -2.078125 L 2.546875 -21.765625 C 2.546875 -22.328125 2.753906 -22.8125 3.171875 -23.21875 C 3.597656 -23.625 4.101562 -23.828125 4.6875 -23.828125 C 5.03125 -23.828125 5.367188 -23.742188 5.703125 -23.578125 C 6.046875 -23.410156 6.3125 -23.191406 6.5 -22.921875 L 13.90625 -11.53125 L 21.515625 -22.921875 C 21.703125 -23.191406 21.945312 -23.410156 22.25 -23.578125 C 22.5625 -23.742188 22.875 -23.828125 23.1875 -23.828125 Z M 23.1875 -23.828125 "/></g></g></g><g fill="#000000" fill-opacity="1"><g transform="translate(117.338902, 236.020662)"><g><path d="M 16.015625 -3.90625 C 16.597656 -3.90625 17.085938 -3.707031 17.484375 -3.3125 C 17.890625 -2.914062 18.09375 -2.457031 18.09375 -1.9375 C 18.09375 -1.375 17.890625 -0.910156 17.484375 -0.546875 C 17.085938 -0.179688 16.597656 0 16.015625 0 L 4.625 0 C 4.03125 0 3.535156 -0.195312 3.140625 -0.59375 C 2.742188 -0.988281 2.546875 -1.484375 2.546875 -2.078125 L 2.546875 -21.71875 C 2.546875 -22.3125 2.742188 -22.804688 3.140625 -23.203125 C 3.535156 -23.597656 4.03125 -23.796875 4.625 -23.796875 L 16.015625 -23.796875 C 16.597656 -23.796875 17.085938 -23.609375 17.484375 -23.234375 C 17.890625 -22.859375 18.09375 -22.378906 18.09375 -21.796875 C 18.09375 -21.222656 17.898438 -20.757812 17.515625 -20.40625 C 17.128906 -20.0625 16.628906 -19.890625 16.015625 -19.890625 L 6.796875 -19.890625 L 6.796875 -14.109375 L 14.484375 -14.109375 C 15.078125 -14.109375 15.570312 -13.921875 15.96875 -13.546875 C 16.363281 -13.171875 16.5625 -12.691406 16.5625 -12.109375 C 16.5625 -11.535156 16.367188 -11.070312 15.984375 -10.71875 C 15.597656 -10.375 15.097656 -10.203125 14.484375 -10.203125 L 6.796875 -10.203125 L 6.796875 -3.90625 Z M 16.015625 -3.90625 "/></g></g></g><g fill="#000000" fill-opacity="1"><g transform="translate(136.784679, 236.020662)"><g><path d="M 21.21875 -3.328125 C 21.507812 -3.148438 21.738281 -2.910156 21.90625 -2.609375 C 22.082031 -2.316406 22.171875 -2.015625 22.171875 -1.703125 C 22.171875 -1.296875 22.035156 -0.921875 21.765625 -0.578125 C 21.421875 -0.171875 20.898438 0.03125 20.203125 0.03125 C 19.648438 0.03125 19.148438 -0.09375 18.703125 -0.34375 C 17.066406 -1.269531 16.25 -3.160156 16.25 -6.015625 C 16.25 -6.828125 15.984375 -7.472656 15.453125 -7.953125 C 14.921875 -8.429688 14.15625 -8.671875 13.15625 -8.671875 L 6.796875 -8.671875 L 6.796875 -2.078125 C 6.796875 -1.460938 6.628906 -0.960938 6.296875 -0.578125 C 5.972656 -0.191406 5.539062 0 5 0 C 4.34375 0 3.769531 -0.195312 3.28125 -0.59375 C 2.789062 -0.988281 2.546875 -1.484375 2.546875 -2.078125 L 2.546875 -21.71875 C 2.546875 -22.3125 2.742188 -22.804688 3.140625 -23.203125 C 3.535156 -23.597656 4.03125 -23.796875 4.625 -23.796875 L 14.421875 -23.796875 C 15.597656 -23.796875 16.707031 -23.476562 17.75 -22.84375 C 18.789062 -22.207031 19.625 -21.332031 20.25 -20.21875 C 20.875 -19.113281 21.1875 -17.867188 21.1875 -16.484375 C 21.1875 -15.359375 20.878906 -14.253906 20.265625 -13.171875 C 19.648438 -12.097656 18.859375 -11.242188 17.890625 -10.609375 C 19.316406 -9.609375 20.097656 -8.269531 20.234375 -6.59375 C 20.296875 -6.226562 20.328125 -5.878906 20.328125 -5.546875 C 20.421875 -4.835938 20.507812 -4.328125 20.59375 -4.015625 C 20.6875 -3.710938 20.894531 -3.484375 21.21875 -3.328125 Z M 14.25 -12.171875 C 14.65625 -12.171875 15.050781 -12.363281 15.4375 -12.75 C 15.820312 -13.132812 16.140625 -13.648438 16.390625 -14.296875 C 16.640625 -14.941406 16.765625 -15.640625 16.765625 -16.390625 C 16.765625 -17.023438 16.640625 -17.609375 16.390625 -18.140625 C 16.140625 -18.671875 15.820312 -19.09375 15.4375 -19.40625 C 15.050781 -19.726562 14.65625 -19.890625 14.25 -19.890625 L 6.796875 -19.890625 L 6.796875 -12.171875 Z M 14.25 -12.171875 "/></g></g></g><g fill="#000000" fill-opacity="1"><g transform="translate(160.139998, 236.020662)"><g><path d="M 20.609375 -23.796875 C 21.148438 -23.796875 21.585938 -23.613281 21.921875 -23.25 C 22.265625 -22.894531 22.4375 -22.441406 22.4375 -21.890625 L 22.4375 -2.078125 C 22.4375 -1.484375 22.238281 -0.988281 21.84375 -0.59375 C 21.445312 -0.195312 20.953125 0 20.359375 0 C 20.046875 0 19.734375 -0.0507812 19.421875 -0.15625 C 19.117188 -0.257812 18.898438 -0.398438 18.765625 -0.578125 L 6.296875 -16.421875 L 6.296875 -1.90625 C 6.296875 -1.363281 6.117188 -0.910156 5.765625 -0.546875 C 5.410156 -0.179688 4.953125 0 4.390625 0 C 3.835938 0 3.390625 -0.179688 3.046875 -0.546875 C 2.710938 -0.910156 2.546875 -1.363281 2.546875 -1.90625 L 2.546875 -21.71875 C 2.546875 -22.3125 2.742188 -22.804688 3.140625 -23.203125 C 3.535156 -23.597656 4.03125 -23.796875 4.625 -23.796875 C 4.96875 -23.796875 5.300781 -23.726562 5.625 -23.59375 C 5.957031 -23.457031 6.203125 -23.273438 6.359375 -23.046875 L 18.734375 -7.28125 L 18.734375 -21.890625 C 18.734375 -22.441406 18.90625 -22.894531 19.25 -23.25 C 19.601562 -23.613281 20.054688 -23.796875 20.609375 -23.796875 Z M 20.609375 -23.796875 "/></g></g></g><g fill="#000000" fill-opacity="1"><g transform="translate(185.127129, 236.020662)"><g/></g></g><g fill="#000000" fill-opacity="1"><g transform="translate(194.646038, 236.020662)"><g><path d="M 16.828125 -13.1875 C 18.023438 -12.71875 19.003906 -11.992188 19.765625 -11.015625 C 20.523438 -10.035156 20.90625 -8.773438 20.90625 -7.234375 C 20.90625 -4.546875 20.132812 -2.664062 18.59375 -1.59375 C 17.050781 -0.53125 15.21875 0 13.09375 0 L 4.625 0 C 4.03125 0 3.535156 -0.195312 3.140625 -0.59375 C 2.742188 -0.988281 2.546875 -1.484375 2.546875 -2.078125 L 2.546875 -21.71875 C 2.546875 -22.3125 2.742188 -22.804688 3.140625 -23.203125 C 3.535156 -23.597656 4.03125 -23.796875 4.625 -23.796875 L 13.1875 -23.796875 C 17.5 -23.796875 19.65625 -21.78125 19.65625 -17.75 C 19.65625 -16.726562 19.410156 -15.828125 18.921875 -15.046875 C 18.429688 -14.265625 17.734375 -13.644531 16.828125 -13.1875 Z M 15.234375 -17 C 15.234375 -17.925781 15 -18.617188 14.53125 -19.078125 C 14.070312 -19.546875 13.421875 -19.78125 12.578125 -19.78125 L 6.96875 -19.78125 L 6.96875 -14.484375 L 12.6875 -14.484375 C 13.363281 -14.484375 13.957031 -14.707031 14.46875 -15.15625 C 14.976562 -15.613281 15.234375 -16.226562 15.234375 -17 Z M 13.09375 -3.90625 C 14.15625 -3.90625 14.984375 -4.1875 15.578125 -4.75 C 16.179688 -5.320312 16.484375 -6.148438 16.484375 -7.234375 C 16.484375 -8.578125 16.128906 -9.453125 15.421875 -9.859375 C 14.722656 -10.265625 13.867188 -10.46875 12.859375 -10.46875 L 6.96875 -10.46875 L 6.96875 -3.90625 Z M 13.09375 -3.90625 "/></g></g></g><g fill="#000000" fill-opacity="1"><g transform="translate(216.913481, 236.020662)"><g><path d="M 15.671875 -3.984375 C 16.265625 -3.984375 16.757812 -3.796875 17.15625 -3.421875 C 17.550781 -3.046875 17.75 -2.5625 17.75 -1.96875 C 17.75 -1.40625 17.550781 -0.9375 17.15625 -0.5625 C 16.757812 -0.1875 16.265625 0 15.671875 0 L 4.625 0 C 4.03125 0 3.535156 -0.195312 3.140625 -0.59375 C 2.742188 -0.988281 2.546875 -1.484375 2.546875 -2.078125 L 2.546875 -21.71875 C 2.546875 -22.3125 2.75 -22.804688 3.15625 -23.203125 C 3.570312 -23.597656 4.09375 -23.796875 4.71875 -23.796875 C 5.289062 -23.796875 5.78125 -23.597656 6.1875 -23.203125 C 6.59375 -22.804688 6.796875 -22.3125 6.796875 -21.71875 L 6.796875 -3.984375 Z M 15.671875 -3.984375 "/></g></g></g><g fill="#000000" fill-opacity="1"><g transform="translate(236.019288, 236.020662)"><g><path d="M 24.453125 -11.90625 C 24.453125 -9.65625 23.953125 -7.59375 22.953125 -5.71875 C 21.953125 -3.851562 20.570312 -2.375 18.8125 -1.28125 C 17.0625 -0.195312 15.085938 0.34375 12.890625 0.34375 C 10.691406 0.34375 8.710938 -0.195312 6.953125 -1.28125 C 5.191406 -2.375 3.816406 -3.851562 2.828125 -5.71875 C 1.847656 -7.59375 1.359375 -9.65625 1.359375 -11.90625 C 1.359375 -14.144531 1.847656 -16.195312 2.828125 -18.0625 C 3.816406 -19.9375 5.191406 -21.414062 6.953125 -22.5 C 8.710938 -23.59375 10.691406 -24.140625 12.890625 -24.140625 C 15.085938 -24.140625 17.0625 -23.59375 18.8125 -22.5 C 20.570312 -21.414062 21.953125 -19.9375 22.953125 -18.0625 C 23.953125 -16.195312 24.453125 -14.144531 24.453125 -11.90625 Z M 20.03125 -11.90625 C 20.03125 -13.414062 19.722656 -14.789062 19.109375 -16.03125 C 18.492188 -17.269531 17.640625 -18.25 16.546875 -18.96875 C 15.460938 -19.695312 14.242188 -20.0625 12.890625 -20.0625 C 11.503906 -20.0625 10.269531 -19.703125 9.1875 -18.984375 C 8.113281 -18.273438 7.273438 -17.296875 6.671875 -16.046875 C 6.078125 -14.796875 5.78125 -13.414062 5.78125 -11.90625 C 5.78125 -10.382812 6.078125 -9 6.671875 -7.75 C 7.273438 -6.5 8.113281 -5.515625 9.1875 -4.796875 C 10.269531 -4.085938 11.503906 -3.734375 12.890625 -3.734375 C 14.242188 -3.734375 15.460938 -4.097656 16.546875 -4.828125 C 17.640625 -5.554688 18.492188 -6.535156 19.109375 -7.765625 C 19.722656 -9.003906 20.03125 -10.382812 20.03125 -11.90625 Z M 20.03125 -11.90625 "/></g></g></g><g fill="#000000" fill-opacity="1"><g transform="translate(261.822326, 236.020662)"><g><path d="M 20.09375 -12.859375 C 20.6875 -12.859375 21.175781 -12.65625 21.5625 -12.25 C 21.945312 -11.851562 22.140625 -11.363281 22.140625 -10.78125 L 22.140625 -3.5625 C 22.140625 -2.769531 21.785156 -2.160156 21.078125 -1.734375 C 18.859375 -0.347656 16.421875 0.34375 13.765625 0.34375 C 11.523438 0.34375 9.453125 -0.203125 7.546875 -1.296875 C 5.640625 -2.398438 4.128906 -3.882812 3.015625 -5.75 C 1.910156 -7.625 1.359375 -9.675781 1.359375 -11.90625 C 1.359375 -14.125 1.910156 -16.164062 3.015625 -18.03125 C 4.128906 -19.90625 5.640625 -21.390625 7.546875 -22.484375 C 9.453125 -23.585938 11.523438 -24.140625 13.765625 -24.140625 C 16.015625 -24.140625 17.96875 -23.6875 19.625 -22.78125 C 19.957031 -22.601562 20.207031 -22.363281 20.375 -22.0625 C 20.550781 -21.769531 20.640625 -21.453125 20.640625 -21.109375 C 20.640625 -20.546875 20.453125 -20.050781 20.078125 -19.625 C 19.703125 -19.207031 19.242188 -19 18.703125 -19 C 18.359375 -19 17.984375 -19.09375 17.578125 -19.28125 C 16.347656 -19.800781 15.078125 -20.0625 13.765625 -20.0625 C 12.316406 -20.0625 10.976562 -19.691406 9.75 -18.953125 C 8.53125 -18.210938 7.5625 -17.21875 6.84375 -15.96875 C 6.132812 -14.726562 5.78125 -13.375 5.78125 -11.90625 C 5.78125 -10.425781 6.132812 -9.0625 6.84375 -7.8125 C 7.5625 -6.570312 8.53125 -5.582031 9.75 -4.84375 C 10.976562 -4.101562 12.316406 -3.734375 13.765625 -3.734375 C 14.398438 -3.734375 15.078125 -3.789062 15.796875 -3.90625 C 16.523438 -4.019531 17.164062 -4.171875 17.71875 -4.359375 L 17.71875 -8.765625 L 14.515625 -8.765625 C 13.929688 -8.765625 13.4375 -8.957031 13.03125 -9.34375 C 12.632812 -9.726562 12.4375 -10.21875 12.4375 -10.8125 C 12.4375 -11.40625 12.632812 -11.894531 13.03125 -12.28125 C 13.4375 -12.664062 13.929688 -12.859375 14.515625 -12.859375 Z M 20.09375 -12.859375 "/></g></g></g><g fill="#4f39f6" fill-opacity="1"><g transform="translate(49.195314, 260.370657)"><g><path d="M 1.109375 -12.5625 C 1.171875 -13.050781 1.441406 -13.296875 1.921875 -13.296875 L 2.484375 -13.296875 C 2.703125 -13.296875 2.867188 -13.25 2.984375 -13.15625 C 3.097656 -13.0625 3.15625 -12.925781 3.15625 -12.75 C 3.15625 -12.65625 3.132812 -12.550781 3.09375 -12.4375 L 1.84375 -8.421875 C 1.71875 -8.066406 1.488281 -7.890625 1.15625 -7.890625 C 0.988281 -7.890625 0.867188 -7.945312 0.796875 -8.0625 C 0.722656 -8.175781 0.695312 -8.335938 0.71875 -8.546875 Z M 5.046875 -12.5625 C 5.085938 -13.050781 5.359375 -13.296875 5.859375 -13.296875 L 6.4375 -13.296875 C 6.644531 -13.296875 6.804688 -13.25 6.921875 -13.15625 C 7.035156 -13.0625 7.09375 -12.925781 7.09375 -12.75 C 7.09375 -12.65625 7.070312 -12.550781 7.03125 -12.4375 L 5.75 -8.421875 C 5.644531 -8.066406 5.421875 -7.890625 5.078125 -7.890625 C 4.921875 -7.890625 4.804688 -7.945312 4.734375 -8.0625 C 4.671875 -8.1875 4.644531 -8.351562 4.65625 -8.5625 Z M 5.046875 -12.5625 "/></g></g></g><g fill="#4f39f6" fill-opacity="1"><g transform="translate(56.983727, 260.370657)"><g><path d="M 11.796875 -1.171875 C 11.835938 -1.054688 11.859375 -0.9375 11.859375 -0.8125 C 11.859375 -0.5625 11.769531 -0.351562 11.59375 -0.1875 C 11.425781 -0.0195312 11.226562 0.0625 11 0.0625 C 10.820312 0.0625 10.660156 0.0078125 10.515625 -0.09375 C 10.367188 -0.207031 10.253906 -0.359375 10.171875 -0.546875 L 8.984375 -3.34375 L 3.109375 -3.34375 L 1.953125 -0.53125 C 1.890625 -0.34375 1.785156 -0.195312 1.640625 -0.09375 C 1.492188 0.0078125 1.332031 0.0625 1.15625 0.0625 C 0.894531 0.0625 0.691406 -0.00390625 0.546875 -0.140625 C 0.410156 -0.285156 0.34375 -0.476562 0.34375 -0.71875 C 0.34375 -0.769531 0.351562 -0.875 0.375 -1.03125 L 5.21875 -12.765625 C 5.3125 -12.972656 5.4375 -13.128906 5.59375 -13.234375 C 5.75 -13.335938 5.929688 -13.378906 6.140625 -13.359375 C 6.328125 -13.359375 6.492188 -13.304688 6.640625 -13.203125 C 6.796875 -13.097656 6.90625 -12.953125 6.96875 -12.765625 Z M 3.84375 -5.078125 L 8.265625 -5.078125 L 6.046875 -10.390625 Z M 3.84375 -5.078125 "/></g></g></g><g fill="#4f39f6" fill-opacity="1"><g transform="translate(69.179237, 260.370657)"><g><path d="M 3.3125 -0.90625 C 3.3125 -0.65625 3.222656 -0.441406 3.046875 -0.265625 C 2.867188 -0.0859375 2.648438 0 2.390625 0 C 2.140625 0 1.925781 -0.0859375 1.75 -0.265625 C 1.582031 -0.441406 1.5 -0.65625 1.5 -0.90625 L 1.5 -13.140625 C 1.5 -13.398438 1.585938 -13.617188 1.765625 -13.796875 C 1.941406 -13.972656 2.15625 -14.0625 2.40625 -14.0625 C 2.664062 -14.0625 2.878906 -13.972656 3.046875 -13.796875 C 3.222656 -13.617188 3.3125 -13.398438 3.3125 -13.140625 Z M 3.3125 -0.90625 "/></g></g></g><g fill="#4f39f6" fill-opacity="1"><g transform="translate(73.985252, 260.370657)"><g><path d="M 3.3125 -0.90625 C 3.3125 -0.65625 3.222656 -0.441406 3.046875 -0.265625 C 2.867188 -0.0859375 2.648438 0 2.390625 0 C 2.140625 0 1.925781 -0.0859375 1.75 -0.265625 C 1.582031 -0.441406 1.5 -0.65625 1.5 -0.90625 L 1.5 -13.140625 C 1.5 -13.398438 1.585938 -13.617188 1.765625 -13.796875 C 1.941406 -13.972656 2.15625 -14.0625 2.40625 -14.0625 C 2.664062 -14.0625 2.878906 -13.972656 3.046875 -13.796875 C 3.222656 -13.617188 3.3125 -13.398438 3.3125 -13.140625 Z M 3.3125 -0.90625 "/></g></g></g><g fill="#4f39f6" fill-opacity="1"><g transform="translate(78.791267, 260.370657)"><g/></g></g><g fill="#4f39f6" fill-opacity="1"><g transform="translate(84.053191, 260.370657)"><g><path d="M 10.203125 -13.296875 C 10.472656 -13.296875 10.691406 -13.21875 10.859375 -13.0625 C 11.023438 -12.90625 11.109375 -12.691406 11.109375 -12.421875 C 11.109375 -12.160156 11.023438 -11.953125 10.859375 -11.796875 C 10.691406 -11.648438 10.472656 -11.578125 10.203125 -11.578125 L 6.828125 -11.578125 L 6.828125 -0.90625 C 6.828125 -0.65625 6.734375 -0.441406 6.546875 -0.265625 C 6.359375 -0.0859375 6.128906 0 5.859375 0 C 5.578125 0 5.34375 -0.0859375 5.15625 -0.265625 C 4.976562 -0.441406 4.890625 -0.65625 4.890625 -0.90625 L 4.890625 -11.578125 L 1.515625 -11.578125 C 1.253906 -11.578125 1.035156 -11.65625 0.859375 -11.8125 C 0.691406 -11.96875 0.609375 -12.175781 0.609375 -12.4375 C 0.609375 -12.695312 0.691406 -12.90625 0.859375 -13.0625 C 1.035156 -13.21875 1.253906 -13.296875 1.515625 -13.296875 Z M 10.203125 -13.296875 "/></g></g></g><g fill="#4f39f6" fill-opacity="1"><g transform="translate(95.773794, 260.370657)"><g><path d="M 6.3125 -10.125 C 8.539062 -10.125 9.65625 -8.742188 9.65625 -5.984375 L 9.65625 -0.90625 C 9.65625 -0.65625 9.566406 -0.441406 9.390625 -0.265625 C 9.222656 -0.0859375 9.003906 0 8.734375 0 C 8.484375 0 8.269531 -0.0859375 8.09375 -0.265625 C 7.925781 -0.441406 7.84375 -0.65625 7.84375 -0.90625 L 7.84375 -5.984375 C 7.84375 -7.628906 7.144531 -8.453125 5.75 -8.453125 C 5.007812 -8.453125 4.390625 -8.210938 3.890625 -7.734375 C 3.398438 -7.265625 3.15625 -6.679688 3.15625 -5.984375 L 3.15625 -0.90625 C 3.15625 -0.65625 3.066406 -0.441406 2.890625 -0.265625 C 2.722656 -0.0859375 2.503906 0 2.234375 0 C 1.972656 0 1.757812 -0.0820312 1.59375 -0.25 C 1.425781 -0.425781 1.34375 -0.644531 1.34375 -0.90625 L 1.34375 -13.140625 C 1.34375 -13.398438 1.425781 -13.617188 1.59375 -13.796875 C 1.769531 -13.972656 1.984375 -14.0625 2.234375 -14.0625 C 2.503906 -14.0625 2.722656 -13.972656 2.890625 -13.796875 C 3.066406 -13.617188 3.15625 -13.398438 3.15625 -13.140625 L 3.15625 -8.34375 C 3.46875 -8.832031 3.910156 -9.25 4.484375 -9.59375 C 5.054688 -9.945312 5.664062 -10.125 6.3125 -10.125 Z M 6.3125 -10.125 "/></g></g></g><g fill="#4f39f6" fill-opacity="1"><g transform="translate(106.77255, 260.370657)"><g><path d="M 3.0625 -0.90625 C 3.0625 -0.65625 2.972656 -0.441406 2.796875 -0.265625 C 2.628906 -0.0859375 2.410156 0 2.140625 0 C 1.890625 0 1.675781 -0.0859375 1.5 -0.265625 C 1.332031 -0.441406 1.25 -0.65625 1.25 -0.90625 L 1.25 -9.140625 C 1.25 -9.390625 1.332031 -9.601562 1.5 -9.78125 C 1.675781 -9.957031 1.890625 -10.046875 2.140625 -10.046875 C 2.410156 -10.046875 2.628906 -9.957031 2.796875 -9.78125 C 2.972656 -9.601562 3.0625 -9.390625 3.0625 -9.140625 Z M 2.15625 -11.3125 C 1.78125 -11.3125 1.515625 -11.375 1.359375 -11.5 C 1.203125 -11.632812 1.125 -11.847656 1.125 -12.140625 L 1.125 -12.4375 C 1.125 -12.75 1.207031 -12.96875 1.375 -13.09375 C 1.550781 -13.21875 1.816406 -13.28125 2.171875 -13.28125 C 2.523438 -13.28125 2.78125 -13.210938 2.9375 -13.078125 C 3.09375 -12.941406 3.171875 -12.726562 3.171875 -12.4375 L 3.171875 -12.140625 C 3.171875 -11.835938 3.085938 -11.625 2.921875 -11.5 C 2.765625 -11.375 2.507812 -11.3125 2.15625 -11.3125 Z M 2.15625 -11.3125 "/></g></g></g><g fill="#4f39f6" fill-opacity="1"><g transform="translate(111.084672, 260.370657)"><g><path d="M 6.421875 -10.1875 C 8.703125 -10.1875 9.84375 -8.816406 9.84375 -6.078125 L 9.84375 -0.90625 C 9.84375 -0.65625 9.753906 -0.441406 9.578125 -0.265625 C 9.410156 -0.0859375 9.195312 0 8.9375 0 C 8.675781 0 8.457031 -0.0859375 8.28125 -0.265625 C 8.113281 -0.441406 8.03125 -0.65625 8.03125 -0.90625 L 8.03125 -6.0625 C 8.03125 -6.8125 7.859375 -7.40625 7.515625 -7.84375 C 7.179688 -8.289062 6.628906 -8.515625 5.859375 -8.515625 C 5.347656 -8.515625 4.882812 -8.398438 4.46875 -8.171875 C 4.0625 -7.953125 3.738281 -7.65625 3.5 -7.28125 C 3.269531 -6.90625 3.15625 -6.5 3.15625 -6.0625 L 3.15625 -0.90625 C 3.15625 -0.65625 3.066406 -0.441406 2.890625 -0.265625 C 2.722656 -0.0859375 2.503906 0 2.234375 0 C 1.972656 0 1.757812 -0.0820312 1.59375 -0.25 C 1.425781 -0.425781 1.34375 -0.644531 1.34375 -0.90625 L 1.34375 -9.046875 C 1.34375 -9.296875 1.425781 -9.507812 1.59375 -9.6875 C 1.769531 -9.863281 1.984375 -9.953125 2.234375 -9.953125 C 2.503906 -9.953125 2.722656 -9.863281 2.890625 -9.6875 C 3.066406 -9.507812 3.15625 -9.296875 3.15625 -9.046875 L 3.15625 -8.375 C 3.476562 -8.882812 3.9375 -9.3125 4.53125 -9.65625 C 5.125 -10.007812 5.753906 -10.1875 6.421875 -10.1875 Z M 6.421875 -10.1875 "/></g></g></g><g fill="#4f39f6" fill-opacity="1"><g transform="translate(122.273388, 260.370657)"><g><path d="M 9.671875 -10.09375 C 9.929688 -10.09375 10.144531 -10.003906 10.3125 -9.828125 C 10.488281 -9.660156 10.578125 -9.4375 10.578125 -9.15625 L 10.578125 -0.796875 C 10.578125 0.222656 10.359375 1.078125 9.921875 1.765625 C 9.484375 2.460938 8.890625 2.972656 8.140625 3.296875 C 7.398438 3.628906 6.5625 3.796875 5.625 3.796875 C 5.113281 3.796875 4.519531 3.707031 3.84375 3.53125 C 3.164062 3.351562 2.734375 3.171875 2.546875 2.984375 C 2.148438 2.773438 1.953125 2.519531 1.953125 2.21875 C 1.953125 2.144531 1.976562 2.046875 2.03125 1.921875 C 2.164062 1.597656 2.398438 1.4375 2.734375 1.4375 C 2.898438 1.4375 3.078125 1.476562 3.265625 1.5625 C 4.273438 1.945312 5.066406 2.140625 5.640625 2.140625 C 6.648438 2.140625 7.425781 1.894531 7.96875 1.40625 C 8.507812 0.925781 8.78125 0.257812 8.78125 -0.59375 L 8.78125 -1.609375 C 8.507812 -1.117188 8.0625 -0.695312 7.4375 -0.34375 C 6.8125 0.0078125 6.148438 0.1875 5.453125 0.1875 C 4.578125 0.1875 3.773438 -0.03125 3.046875 -0.46875 C 2.328125 -0.914062 1.757812 -1.535156 1.34375 -2.328125 C 0.9375 -3.117188 0.734375 -4.007812 0.734375 -5 C 0.734375 -5.988281 0.9375 -6.878906 1.34375 -7.671875 C 1.757812 -8.460938 2.328125 -9.078125 3.046875 -9.515625 C 3.765625 -9.960938 4.554688 -10.1875 5.421875 -10.1875 C 6.109375 -10.1875 6.753906 -10.023438 7.359375 -9.703125 C 7.960938 -9.390625 8.4375 -9.003906 8.78125 -8.546875 L 8.78125 -9.15625 C 8.78125 -9.425781 8.859375 -9.648438 9.015625 -9.828125 C 9.179688 -10.003906 9.398438 -10.09375 9.671875 -10.09375 Z M 5.65625 -1.484375 C 6.28125 -1.484375 6.832031 -1.628906 7.3125 -1.921875 C 7.789062 -2.222656 8.164062 -2.640625 8.4375 -3.171875 C 8.71875 -3.710938 8.859375 -4.320312 8.859375 -5 C 8.859375 -5.664062 8.71875 -6.265625 8.4375 -6.796875 C 8.164062 -7.328125 7.789062 -7.742188 7.3125 -8.046875 C 6.832031 -8.359375 6.28125 -8.515625 5.65625 -8.515625 C 5.050781 -8.515625 4.507812 -8.359375 4.03125 -8.046875 C 3.550781 -7.742188 3.171875 -7.320312 2.890625 -6.78125 C 2.617188 -6.25 2.484375 -5.65625 2.484375 -5 C 2.484375 -4.34375 2.617188 -3.742188 2.890625 -3.203125 C 3.171875 -2.660156 3.550781 -2.238281 4.03125 -1.9375 C 4.507812 -1.632812 5.050781 -1.484375 5.65625 -1.484375 Z M 5.65625 -1.484375 "/></g></g></g><g fill="#4f39f6" fill-opacity="1"><g transform="translate(134.183952, 260.370657)"><g><path d="M 0.78125 -1.5625 C 0.664062 -1.738281 0.609375 -1.910156 0.609375 -2.078125 C 0.609375 -2.328125 0.738281 -2.539062 1 -2.71875 C 1.132812 -2.800781 1.28125 -2.84375 1.4375 -2.84375 C 1.664062 -2.84375 1.878906 -2.75 2.078125 -2.5625 C 2.453125 -2.132812 2.859375 -1.8125 3.296875 -1.59375 C 3.734375 -1.375 4.253906 -1.265625 4.859375 -1.265625 C 5.347656 -1.285156 5.773438 -1.398438 6.140625 -1.609375 C 6.503906 -1.816406 6.6875 -2.15625 6.6875 -2.625 C 6.6875 -3.050781 6.5 -3.378906 6.125 -3.609375 C 5.75 -3.835938 5.203125 -4.046875 4.484375 -4.234375 C 3.773438 -4.421875 3.1875 -4.617188 2.71875 -4.828125 C 2.25 -5.046875 1.851562 -5.351562 1.53125 -5.75 C 1.207031 -6.144531 1.046875 -6.664062 1.046875 -7.3125 C 1.046875 -7.882812 1.207031 -8.382812 1.53125 -8.8125 C 1.851562 -9.25 2.28125 -9.585938 2.8125 -9.828125 C 3.351562 -10.066406 3.941406 -10.1875 4.578125 -10.1875 C 5.179688 -10.1875 5.785156 -10.070312 6.390625 -9.84375 C 6.992188 -9.613281 7.484375 -9.265625 7.859375 -8.796875 C 8.015625 -8.617188 8.09375 -8.4375 8.09375 -8.25 C 8.09375 -8.039062 7.992188 -7.84375 7.796875 -7.65625 C 7.660156 -7.539062 7.5 -7.484375 7.3125 -7.484375 C 7.082031 -7.484375 6.898438 -7.5625 6.765625 -7.71875 C 6.492188 -8.019531 6.164062 -8.25 5.78125 -8.40625 C 5.394531 -8.570312 4.96875 -8.65625 4.5 -8.65625 C 4.019531 -8.65625 3.613281 -8.554688 3.28125 -8.359375 C 2.945312 -8.171875 2.78125 -7.84375 2.78125 -7.375 C 2.789062 -6.925781 2.976562 -6.59375 3.34375 -6.375 C 3.71875 -6.164062 4.296875 -5.957031 5.078125 -5.75 C 5.742188 -5.570312 6.296875 -5.382812 6.734375 -5.1875 C 7.179688 -4.988281 7.554688 -4.6875 7.859375 -4.28125 C 8.171875 -3.882812 8.328125 -3.363281 8.328125 -2.71875 C 8.328125 -2.125 8.15625 -1.609375 7.8125 -1.171875 C 7.46875 -0.734375 7.019531 -0.394531 6.46875 -0.15625 C 5.914062 0.0703125 5.332031 0.1875 4.71875 0.1875 C 3.914062 0.1875 3.175781 0.0507812 2.5 -0.21875 C 1.820312 -0.5 1.25 -0.945312 0.78125 -1.5625 Z M 0.78125 -1.5625 "/></g></g></g><g fill="#4f39f6" fill-opacity="1"><g transform="translate(143.245097, 260.370657)"><g/></g></g><g fill="#4f39f6" fill-opacity="1"><g transform="translate(148.507021, 260.370657)"><g><path d="M 13.125 -13.3125 C 13.382812 -13.300781 13.601562 -13.207031 13.78125 -13.03125 C 13.957031 -12.863281 14.046875 -12.65625 14.046875 -12.40625 L 14.046875 -0.90625 C 14.046875 -0.65625 13.957031 -0.441406 13.78125 -0.265625 C 13.613281 -0.0859375 13.390625 0 13.109375 0 C 12.828125 0 12.597656 -0.0820312 12.421875 -0.25 C 12.242188 -0.425781 12.15625 -0.644531 12.15625 -0.90625 L 12.15625 -9.703125 L 8.46875 -4.125 C 8.382812 -4.007812 8.273438 -3.910156 8.140625 -3.828125 C 8.003906 -3.753906 7.867188 -3.726562 7.734375 -3.75 C 7.609375 -3.726562 7.476562 -3.753906 7.34375 -3.828125 C 7.207031 -3.910156 7.097656 -4.007812 7.015625 -4.125 L 3.3125 -9.875 L 3.3125 -0.90625 C 3.3125 -0.644531 3.226562 -0.425781 3.0625 -0.25 C 2.90625 -0.0820312 2.695312 0 2.4375 0 C 2.175781 0 1.96875 -0.0820312 1.8125 -0.25 C 1.65625 -0.425781 1.578125 -0.644531 1.578125 -0.90625 L 1.578125 -12.40625 C 1.578125 -12.644531 1.664062 -12.851562 1.84375 -13.03125 C 2.019531 -13.21875 2.242188 -13.3125 2.515625 -13.3125 C 2.660156 -13.3125 2.804688 -13.273438 2.953125 -13.203125 C 3.097656 -13.128906 3.21875 -13.03125 3.3125 -12.90625 L 7.8125 -6.078125 L 12.375 -12.90625 C 12.570312 -13.175781 12.820312 -13.3125 13.125 -13.3125 Z M 13.125 -13.3125 "/></g></g></g><g fill="#4f39f6" fill-opacity="1"><g transform="translate(164.121831, 260.370657)"><g><path d="M 9.09375 -1.75 C 9.363281 -1.75 9.582031 -1.660156 9.75 -1.484375 C 9.925781 -1.304688 10.015625 -1.097656 10.015625 -0.859375 C 10.015625 -0.597656 9.925781 -0.390625 9.75 -0.234375 C 9.582031 -0.078125 9.363281 0 9.09375 0 L 2.484375 0 C 2.234375 0 2.019531 -0.0859375 1.84375 -0.265625 C 1.664062 -0.441406 1.578125 -0.65625 1.578125 -0.90625 L 1.578125 -12.390625 C 1.578125 -12.640625 1.664062 -12.851562 1.84375 -13.03125 C 2.019531 -13.207031 2.234375 -13.296875 2.484375 -13.296875 L 9.09375 -13.296875 C 9.363281 -13.296875 9.582031 -13.210938 9.75 -13.046875 C 9.925781 -12.890625 10.015625 -12.675781 10.015625 -12.40625 C 10.015625 -12.15625 9.925781 -11.945312 9.75 -11.78125 C 9.582031 -11.625 9.363281 -11.546875 9.09375 -11.546875 L 3.453125 -11.546875 L 3.453125 -7.671875 L 8.25 -7.671875 C 8.507812 -7.671875 8.722656 -7.585938 8.890625 -7.421875 C 9.066406 -7.265625 9.15625 -7.054688 9.15625 -6.796875 C 9.15625 -6.535156 9.066406 -6.328125 8.890625 -6.171875 C 8.722656 -6.023438 8.507812 -5.953125 8.25 -5.953125 L 3.453125 -5.953125 L 3.453125 -1.75 Z M 9.09375 -1.75 "/></g></g></g><g fill="#4f39f6" fill-opacity="1"><g transform="translate(174.949624, 260.370657)"><g><path d="M 11.703125 -1.515625 C 11.828125 -1.429688 11.925781 -1.320312 12 -1.1875 C 12.082031 -1.050781 12.125 -0.914062 12.125 -0.78125 C 12.125 -0.507812 12.035156 -0.3125 11.859375 -0.1875 C 11.691406 -0.0625 11.488281 0 11.25 0 C 11.007812 0 10.804688 -0.0507812 10.640625 -0.15625 C 10.253906 -0.363281 9.941406 -0.707031 9.703125 -1.1875 C 9.460938 -1.675781 9.34375 -2.390625 9.34375 -3.328125 C 9.34375 -3.960938 9.148438 -4.429688 8.765625 -4.734375 C 8.390625 -5.035156 7.898438 -5.1875 7.296875 -5.1875 L 3.453125 -5.1875 L 3.453125 -0.90625 C 3.453125 -0.644531 3.375 -0.425781 3.21875 -0.25 C 3.070312 -0.0820312 2.878906 0 2.640625 0 C 2.347656 0 2.097656 -0.0859375 1.890625 -0.265625 C 1.679688 -0.441406 1.578125 -0.65625 1.578125 -0.90625 L 1.578125 -12.390625 C 1.578125 -12.640625 1.664062 -12.851562 1.84375 -13.03125 C 2.019531 -13.207031 2.234375 -13.296875 2.484375 -13.296875 L 7.828125 -13.296875 C 8.515625 -13.296875 9.140625 -13.128906 9.703125 -12.796875 C 10.273438 -12.460938 10.734375 -12 11.078125 -11.40625 C 11.421875 -10.820312 11.59375 -10.160156 11.59375 -9.421875 C 11.59375 -8.710938 11.398438 -8.050781 11.015625 -7.4375 C 10.640625 -6.820312 10.15625 -6.363281 9.5625 -6.0625 C 10.03125 -5.820312 10.398438 -5.484375 10.671875 -5.046875 C 10.941406 -4.617188 11.085938 -4.117188 11.109375 -3.546875 C 11.160156 -2.828125 11.21875 -2.335938 11.28125 -2.078125 C 11.34375 -1.816406 11.484375 -1.628906 11.703125 -1.515625 Z M 7.796875 -6.765625 C 8.109375 -6.785156 8.40625 -6.910156 8.6875 -7.140625 C 8.976562 -7.367188 9.210938 -7.675781 9.390625 -8.0625 C 9.566406 -8.445312 9.65625 -8.878906 9.65625 -9.359375 C 9.65625 -9.972656 9.46875 -10.488281 9.09375 -10.90625 C 8.71875 -11.332031 8.265625 -11.546875 7.734375 -11.546875 L 3.453125 -11.546875 L 3.453125 -6.765625 Z M 7.796875 -6.765625 "/></g></g></g><g fill="#4f39f6" fill-opacity="1"><g transform="translate(187.866982, 260.370657)"><g><path d="M 11.515625 -13.296875 C 11.753906 -13.296875 11.945312 -13.21875 12.09375 -13.0625 C 12.25 -12.90625 12.328125 -12.707031 12.328125 -12.46875 L 12.328125 -0.9375 C 12.328125 -0.664062 12.238281 -0.441406 12.0625 -0.265625 C 11.894531 -0.0859375 11.679688 0 11.421875 0 C 11.273438 0 11.132812 -0.0195312 11 -0.0625 C 10.875 -0.113281 10.773438 -0.179688 10.703125 -0.265625 L 3.234375 -10 L 3.234375 -0.84375 C 3.234375 -0.59375 3.148438 -0.390625 2.984375 -0.234375 C 2.828125 -0.078125 2.628906 0 2.390625 0 C 2.148438 0 1.953125 -0.078125 1.796875 -0.234375 C 1.648438 -0.390625 1.578125 -0.59375 1.578125 -0.84375 L 1.578125 -12.390625 C 1.578125 -12.648438 1.660156 -12.863281 1.828125 -13.03125 C 2.003906 -13.207031 2.21875 -13.296875 2.46875 -13.296875 C 2.625 -13.296875 2.769531 -13.265625 2.90625 -13.203125 C 3.039062 -13.148438 3.148438 -13.078125 3.234375 -12.984375 L 10.671875 -3.234375 L 10.671875 -12.46875 C 10.671875 -12.707031 10.75 -12.90625 10.90625 -13.0625 C 11.070312 -13.21875 11.273438 -13.296875 11.515625 -13.296875 Z M 11.515625 -13.296875 "/></g></g></g><g fill="#4f39f6" fill-opacity="1"><g transform="translate(201.772136, 260.370657)"><g/></g></g><g fill="#4f39f6" fill-opacity="1"><g transform="translate(207.034061, 260.370657)"><g><path d="M 3.0625 -0.90625 C 3.0625 -0.65625 2.972656 -0.441406 2.796875 -0.265625 C 2.628906 -0.0859375 2.410156 0 2.140625 0 C 1.890625 0 1.675781 -0.0859375 1.5 -0.265625 C 1.332031 -0.441406 1.25 -0.65625 1.25 -0.90625 L 1.25 -9.140625 C 1.25 -9.390625 1.332031 -9.601562 1.5 -9.78125 C 1.675781 -9.957031 1.890625 -10.046875 2.140625 -10.046875 C 2.410156 -10.046875 2.628906 -9.957031 2.796875 -9.78125 C 2.972656 -9.601562 3.0625 -9.390625 3.0625 -9.140625 Z M 2.15625 -11.3125 C 1.78125 -11.3125 1.515625 -11.375 1.359375 -11.5 C 1.203125 -11.632812 1.125 -11.847656 1.125 -12.140625 L 1.125 -12.4375 C 1.125 -12.75 1.207031 -12.96875 1.375 -13.09375 C 1.550781 -13.21875 1.816406 -13.28125 2.171875 -13.28125 C 2.523438 -13.28125 2.78125 -13.210938 2.9375 -13.078125 C 3.09375 -12.941406 3.171875 -12.726562 3.171875 -12.4375 L 3.171875 -12.140625 C 3.171875 -11.835938 3.085938 -11.625 2.921875 -11.5 C 2.765625 -11.375 2.507812 -11.3125 2.15625 -11.3125 Z M 2.15625 -11.3125 "/></g></g></g><g fill="#4f39f6" fill-opacity="1"><g transform="translate(211.346183, 260.370657)"><g><path d="M 6.421875 -10.1875 C 8.703125 -10.1875 9.84375 -8.816406 9.84375 -6.078125 L 9.84375 -0.90625 C 9.84375 -0.65625 9.753906 -0.441406 9.578125 -0.265625 C 9.410156 -0.0859375 9.195312 0 8.9375 0 C 8.675781 0 8.457031 -0.0859375 8.28125 -0.265625 C 8.113281 -0.441406 8.03125 -0.65625 8.03125 -0.90625 L 8.03125 -6.0625 C 8.03125 -6.8125 7.859375 -7.40625 7.515625 -7.84375 C 7.179688 -8.289062 6.628906 -8.515625 5.859375 -8.515625 C 5.347656 -8.515625 4.882812 -8.398438 4.46875 -8.171875 C 4.0625 -7.953125 3.738281 -7.65625 3.5 -7.28125 C 3.269531 -6.90625 3.15625 -6.5 3.15625 -6.0625 L 3.15625 -0.90625 C 3.15625 -0.65625 3.066406 -0.441406 2.890625 -0.265625 C 2.722656 -0.0859375 2.503906 0 2.234375 0 C 1.972656 0 1.757812 -0.0820312 1.59375 -0.25 C 1.425781 -0.425781 1.34375 -0.644531 1.34375 -0.90625 L 1.34375 -9.046875 C 1.34375 -9.296875 1.425781 -9.507812 1.59375 -9.6875 C 1.769531 -9.863281 1.984375 -9.953125 2.234375 -9.953125 C 2.503906 -9.953125 2.722656 -9.863281 2.890625 -9.6875 C 3.066406 -9.507812 3.15625 -9.296875 3.15625 -9.046875 L 3.15625 -8.375 C 3.476562 -8.882812 3.9375 -9.3125 4.53125 -9.65625 C 5.125 -10.007812 5.753906 -10.1875 6.421875 -10.1875 Z M 6.421875 -10.1875 "/></g></g></g><g fill="#4f39f6" fill-opacity="1"><g transform="translate(222.534899, 260.370657)"><g/></g></g><g fill="#4f39f6" fill-opacity="1"><g transform="translate(227.796823, 260.370657)"><g><path d="M 13.65625 -6.65625 C 13.65625 -5.375 13.378906 -4.210938 12.828125 -3.171875 C 12.285156 -2.128906 11.523438 -1.304688 10.546875 -0.703125 C 9.566406 -0.109375 8.460938 0.1875 7.234375 0.1875 C 6.003906 0.1875 4.898438 -0.109375 3.921875 -0.703125 C 2.953125 -1.304688 2.191406 -2.128906 1.640625 -3.171875 C 1.085938 -4.210938 0.8125 -5.375 0.8125 -6.65625 C 0.8125 -7.925781 1.085938 -9.082031 1.640625 -10.125 C 2.191406 -11.164062 2.953125 -11.984375 3.921875 -12.578125 C 4.898438 -13.179688 6.003906 -13.484375 7.234375 -13.484375 C 8.460938 -13.484375 9.566406 -13.179688 10.546875 -12.578125 C 11.523438 -11.984375 12.285156 -11.164062 12.828125 -10.125 C 13.378906 -9.082031 13.65625 -7.925781 13.65625 -6.65625 Z M 11.703125 -6.65625 C 11.703125 -7.601562 11.507812 -8.457031 11.125 -9.21875 C 10.75 -9.988281 10.222656 -10.59375 9.546875 -11.03125 C 8.867188 -11.46875 8.097656 -11.6875 7.234375 -11.6875 C 6.378906 -11.6875 5.609375 -11.46875 4.921875 -11.03125 C 4.242188 -10.601562 3.71875 -10.003906 3.34375 -9.234375 C 2.96875 -8.472656 2.78125 -7.613281 2.78125 -6.65625 C 2.78125 -5.695312 2.96875 -4.832031 3.34375 -4.0625 C 3.71875 -3.300781 4.242188 -2.703125 4.921875 -2.265625 C 5.609375 -1.828125 6.378906 -1.609375 7.234375 -1.609375 C 8.097656 -1.609375 8.867188 -1.828125 9.546875 -2.265625 C 10.222656 -2.703125 10.75 -3.300781 11.125 -4.0625 C 11.507812 -4.832031 11.703125 -5.695312 11.703125 -6.65625 Z M 11.703125 -6.65625 "/></g></g></g><g fill="#4f39f6" fill-opacity="1"><g transform="translate(242.27187, 260.370657)"><g><path d="M 6.421875 -10.1875 C 8.703125 -10.1875 9.84375 -8.816406 9.84375 -6.078125 L 9.84375 -0.90625 C 9.84375 -0.65625 9.753906 -0.441406 9.578125 -0.265625 C 9.410156 -0.0859375 9.195312 0 8.9375 0 C 8.675781 0 8.457031 -0.0859375 8.28125 -0.265625 C 8.113281 -0.441406 8.03125 -0.65625 8.03125 -0.90625 L 8.03125 -6.0625 C 8.03125 -6.8125 7.859375 -7.40625 7.515625 -7.84375 C 7.179688 -8.289062 6.628906 -8.515625 5.859375 -8.515625 C 5.347656 -8.515625 4.882812 -8.398438 4.46875 -8.171875 C 4.0625 -7.953125 3.738281 -7.65625 3.5 -7.28125 C 3.269531 -6.90625 3.15625 -6.5 3.15625 -6.0625 L 3.15625 -0.90625 C 3.15625 -0.65625 3.066406 -0.441406 2.890625 -0.265625 C 2.722656 -0.0859375 2.503906 0 2.234375 0 C 1.972656 0 1.757812 -0.0820312 1.59375 -0.25 C 1.425781 -0.425781 1.34375 -0.644531 1.34375 -0.90625 L 1.34375 -9.046875 C 1.34375 -9.296875 1.425781 -9.507812 1.59375 -9.6875 C 1.769531 -9.863281 1.984375 -9.953125 2.234375 -9.953125 C 2.503906 -9.953125 2.722656 -9.863281 2.890625 -9.6875 C 3.066406 -9.507812 3.15625 -9.296875 3.15625 -9.046875 L 3.15625 -8.375 C 3.476562 -8.882812 3.9375 -9.3125 4.53125 -9.65625 C 5.125 -10.007812 5.753906 -10.1875 6.421875 -10.1875 Z M 6.421875 -10.1875 "/></g></g></g><g fill="#4f39f6" fill-opacity="1"><g transform="translate(253.460575, 260.370657)"><g><path d="M 10.09375 -5.359375 C 10.070312 -5.128906 9.972656 -4.9375 9.796875 -4.78125 C 9.617188 -4.625 9.410156 -4.546875 9.171875 -4.546875 L 2.484375 -4.546875 C 2.578125 -3.617188 2.929688 -2.875 3.546875 -2.3125 C 4.160156 -1.757812 4.910156 -1.484375 5.796875 -1.484375 C 6.398438 -1.484375 6.890625 -1.570312 7.265625 -1.75 C 7.648438 -1.925781 7.988281 -2.15625 8.28125 -2.4375 C 8.46875 -2.550781 8.648438 -2.609375 8.828125 -2.609375 C 9.046875 -2.609375 9.226562 -2.53125 9.375 -2.375 C 9.519531 -2.21875 9.59375 -2.039062 9.59375 -1.84375 C 9.59375 -1.570312 9.46875 -1.332031 9.21875 -1.125 C 8.84375 -0.75 8.351562 -0.4375 7.75 -0.1875 C 7.144531 0.0625 6.523438 0.1875 5.890625 0.1875 C 4.859375 0.1875 3.953125 -0.0234375 3.171875 -0.453125 C 2.398438 -0.890625 1.800781 -1.492188 1.375 -2.265625 C 0.945312 -3.035156 0.734375 -3.910156 0.734375 -4.890625 C 0.734375 -5.953125 0.953125 -6.882812 1.390625 -7.6875 C 1.828125 -8.488281 2.40625 -9.101562 3.125 -9.53125 C 3.84375 -9.96875 4.613281 -10.1875 5.4375 -10.1875 C 6.25 -10.1875 7.007812 -9.976562 7.71875 -9.5625 C 8.425781 -9.144531 8.992188 -8.566406 9.421875 -7.828125 C 9.847656 -7.085938 10.070312 -6.265625 10.09375 -5.359375 Z M 5.4375 -8.515625 C 4.726562 -8.515625 4.113281 -8.3125 3.59375 -7.90625 C 3.070312 -7.507812 2.726562 -6.894531 2.5625 -6.0625 L 8.171875 -6.0625 L 8.171875 -6.21875 C 8.109375 -6.882812 7.804688 -7.429688 7.265625 -7.859375 C 6.722656 -8.296875 6.113281 -8.515625 5.4375 -8.515625 Z M 5.4375 -8.515625 "/></g></g></g><g fill="#4f39f6" fill-opacity="1"><g transform="translate(264.288379, 260.370657)"><g/></g></g><g fill="#4f39f6" fill-opacity="1"><g transform="translate(269.550303, 260.370657)"><g><path d="M 6.890625 -13.296875 C 7.566406 -13.296875 8.1875 -13.113281 8.75 -12.75 C 9.320312 -12.394531 9.773438 -11.90625 10.109375 -11.28125 C 10.453125 -10.664062 10.625 -9.984375 10.625 -9.234375 C 10.625 -8.484375 10.453125 -7.789062 10.109375 -7.15625 C 9.773438 -6.53125 9.320312 -6.03125 8.75 -5.65625 C 8.1875 -5.289062 7.566406 -5.109375 6.890625 -5.109375 L 3.328125 -5.109375 L 3.328125 -0.90625 C 3.328125 -0.65625 3.242188 -0.441406 3.078125 -0.265625 C 2.910156 -0.0859375 2.703125 0 2.453125 0 C 2.179688 0 1.96875 -0.0820312 1.8125 -0.25 C 1.65625 -0.425781 1.578125 -0.644531 1.578125 -0.90625 L 1.578125 -12.390625 C 1.578125 -12.640625 1.664062 -12.851562 1.84375 -13.03125 C 2.019531 -13.207031 2.234375 -13.296875 2.484375 -13.296875 Z M 6.890625 -6.84375 C 7.234375 -6.84375 7.550781 -6.953125 7.84375 -7.171875 C 8.132812 -7.390625 8.363281 -7.679688 8.53125 -8.046875 C 8.707031 -8.421875 8.796875 -8.816406 8.796875 -9.234375 C 8.796875 -9.878906 8.609375 -10.425781 8.234375 -10.875 C 7.859375 -11.320312 7.410156 -11.546875 6.890625 -11.546875 L 3.328125 -11.546875 L 3.328125 -6.84375 Z M 6.890625 -6.84375 "/></g></g></g><g fill="#4f39f6" fill-opacity="1"><g transform="translate(280.947977, 260.370657)"><g><path d="M 3.3125 -0.90625 C 3.3125 -0.65625 3.222656 -0.441406 3.046875 -0.265625 C 2.867188 -0.0859375 2.648438 0 2.390625 0 C 2.140625 0 1.925781 -0.0859375 1.75 -0.265625 C 1.582031 -0.441406 1.5 -0.65625 1.5 -0.90625 L 1.5 -13.140625 C 1.5 -13.398438 1.585938 -13.617188 1.765625 -13.796875 C 1.941406 -13.972656 2.15625 -14.0625 2.40625 -14.0625 C 2.664062 -14.0625 2.878906 -13.972656 3.046875 -13.796875 C 3.222656 -13.617188 3.3125 -13.398438 3.3125 -13.140625 Z M 3.3125 -0.90625 "/></g></g></g><g fill="#4f39f6" fill-opacity="1"><g transform="translate(285.753992, 260.370657)"><g><path d="M 9.421875 -10.09375 C 9.691406 -10.09375 9.910156 -10.003906 10.078125 -9.828125 C 10.253906 -9.660156 10.34375 -9.4375 10.34375 -9.15625 L 10.34375 -0.90625 C 10.34375 -0.65625 10.253906 -0.441406 10.078125 -0.265625 C 9.910156 -0.0859375 9.691406 0 9.421875 0 C 9.160156 0 8.945312 -0.0820312 8.78125 -0.25 C 8.613281 -0.425781 8.53125 -0.644531 8.53125 -0.90625 L 8.53125 -1.40625 C 8.195312 -0.957031 7.742188 -0.578125 7.171875 -0.265625 C 6.609375 0.0351562 6 0.1875 5.34375 0.1875 C 4.476562 0.1875 3.691406 -0.03125 2.984375 -0.46875 C 2.285156 -0.914062 1.734375 -1.535156 1.328125 -2.328125 C 0.929688 -3.117188 0.734375 -4.007812 0.734375 -5 C 0.734375 -5.988281 0.929688 -6.878906 1.328125 -7.671875 C 1.734375 -8.460938 2.285156 -9.078125 2.984375 -9.515625 C 3.679688 -9.960938 4.445312 -10.1875 5.28125 -10.1875 C 5.945312 -10.1875 6.566406 -10.046875 7.140625 -9.765625 C 7.722656 -9.484375 8.1875 -9.128906 8.53125 -8.703125 L 8.53125 -9.15625 C 8.53125 -9.425781 8.613281 -9.648438 8.78125 -9.828125 C 8.945312 -10.003906 9.160156 -10.09375 9.421875 -10.09375 Z M 5.546875 -1.484375 C 6.140625 -1.484375 6.664062 -1.632812 7.125 -1.9375 C 7.59375 -2.238281 7.957031 -2.65625 8.21875 -3.1875 C 8.476562 -3.71875 8.609375 -4.320312 8.609375 -5 C 8.609375 -5.65625 8.476562 -6.25 8.21875 -6.78125 C 7.957031 -7.3125 7.59375 -7.734375 7.125 -8.046875 C 6.664062 -8.359375 6.140625 -8.515625 5.546875 -8.515625 C 4.953125 -8.515625 4.421875 -8.359375 3.953125 -8.046875 C 3.492188 -7.742188 3.132812 -7.328125 2.875 -6.796875 C 2.613281 -6.265625 2.484375 -5.664062 2.484375 -5 C 2.484375 -4.320312 2.613281 -3.71875 2.875 -3.1875 C 3.132812 -2.65625 3.492188 -2.238281 3.953125 -1.9375 C 4.421875 -1.632812 4.953125 -1.484375 5.546875 -1.484375 Z M 5.546875 -1.484375 "/></g></g></g><g fill="#4f39f6" fill-opacity="1"><g transform="translate(297.417603, 260.370657)"><g><path d="M 5.6875 -10.1875 C 6.6875 -10.1875 7.515625 -10.023438 8.171875 -9.703125 C 8.835938 -9.390625 9.171875 -8.988281 9.171875 -8.5 C 9.171875 -8.28125 9.101562 -8.082031 8.96875 -7.90625 C 8.832031 -7.738281 8.65625 -7.65625 8.4375 -7.65625 C 8.269531 -7.65625 8.140625 -7.679688 8.046875 -7.734375 C 7.953125 -7.785156 7.820312 -7.867188 7.65625 -7.984375 C 7.582031 -8.054688 7.460938 -8.144531 7.296875 -8.25 C 7.140625 -8.320312 6.921875 -8.382812 6.640625 -8.4375 C 6.367188 -8.488281 6.117188 -8.515625 5.890625 -8.515625 C 5.234375 -8.515625 4.648438 -8.359375 4.140625 -8.046875 C 3.628906 -7.742188 3.234375 -7.320312 2.953125 -6.78125 C 2.679688 -6.25 2.546875 -5.65625 2.546875 -5 C 2.546875 -4.320312 2.679688 -3.71875 2.953125 -3.1875 C 3.222656 -2.65625 3.601562 -2.238281 4.09375 -1.9375 C 4.59375 -1.632812 5.160156 -1.484375 5.796875 -1.484375 C 6.453125 -1.484375 6.984375 -1.582031 7.390625 -1.78125 C 7.484375 -1.832031 7.601562 -1.914062 7.75 -2.03125 C 7.875 -2.132812 7.984375 -2.210938 8.078125 -2.265625 C 8.179688 -2.316406 8.300781 -2.34375 8.4375 -2.34375 C 8.6875 -2.34375 8.882812 -2.257812 9.03125 -2.09375 C 9.175781 -1.9375 9.25 -1.734375 9.25 -1.484375 C 9.25 -1.210938 9.082031 -0.945312 8.75 -0.6875 C 8.414062 -0.425781 7.96875 -0.210938 7.40625 -0.046875 C 6.84375 0.109375 6.238281 0.1875 5.59375 0.1875 C 4.625 0.1875 3.769531 -0.0351562 3.03125 -0.484375 C 2.300781 -0.929688 1.734375 -1.550781 1.328125 -2.34375 C 0.929688 -3.132812 0.734375 -4.019531 0.734375 -5 C 0.734375 -5.96875 0.941406 -6.847656 1.359375 -7.640625 C 1.785156 -8.429688 2.367188 -9.050781 3.109375 -9.5 C 3.859375 -9.957031 4.71875 -10.1875 5.6875 -10.1875 Z M 5.6875 -10.1875 "/></g></g></g><g fill="#4f39f6" fill-opacity="1"><g transform="translate(307.18161, 260.370657)"><g><path d="M 10.09375 -5.359375 C 10.070312 -5.128906 9.972656 -4.9375 9.796875 -4.78125 C 9.617188 -4.625 9.410156 -4.546875 9.171875 -4.546875 L 2.484375 -4.546875 C 2.578125 -3.617188 2.929688 -2.875 3.546875 -2.3125 C 4.160156 -1.757812 4.910156 -1.484375 5.796875 -1.484375 C 6.398438 -1.484375 6.890625 -1.570312 7.265625 -1.75 C 7.648438 -1.925781 7.988281 -2.15625 8.28125 -2.4375 C 8.46875 -2.550781 8.648438 -2.609375 8.828125 -2.609375 C 9.046875 -2.609375 9.226562 -2.53125 9.375 -2.375 C 9.519531 -2.21875 9.59375 -2.039062 9.59375 -1.84375 C 9.59375 -1.570312 9.46875 -1.332031 9.21875 -1.125 C 8.84375 -0.75 8.351562 -0.4375 7.75 -0.1875 C 7.144531 0.0625 6.523438 0.1875 5.890625 0.1875 C 4.859375 0.1875 3.953125 -0.0234375 3.171875 -0.453125 C 2.398438 -0.890625 1.800781 -1.492188 1.375 -2.265625 C 0.945312 -3.035156 0.734375 -3.910156 0.734375 -4.890625 C 0.734375 -5.953125 0.953125 -6.882812 1.390625 -7.6875 C 1.828125 -8.488281 2.40625 -9.101562 3.125 -9.53125 C 3.84375 -9.96875 4.613281 -10.1875 5.4375 -10.1875 C 6.25 -10.1875 7.007812 -9.976562 7.71875 -9.5625 C 8.425781 -9.144531 8.992188 -8.566406 9.421875 -7.828125 C 9.847656 -7.085938 10.070312 -6.265625 10.09375 -5.359375 Z M 5.4375 -8.515625 C 4.726562 -8.515625 4.113281 -8.3125 3.59375 -7.90625 C 3.070312 -7.507812 2.726562 -6.894531 2.5625 -6.0625 L 8.171875 -6.0625 L 8.171875 -6.21875 C 8.109375 -6.882812 7.804688 -7.429688 7.265625 -7.859375 C 6.722656 -8.296875 6.113281 -8.515625 5.4375 -8.515625 Z M 5.4375 -8.515625 "/></g></g></g><g fill="#4f39f6" fill-opacity="1"><g transform="translate(318.009414, 260.370657)"><g><path d="M 1.109375 -12.5625 C 1.171875 -13.050781 1.441406 -13.296875 1.921875 -13.296875 L 2.484375 -13.296875 C 2.703125 -13.296875 2.867188 -13.25 2.984375 -13.15625 C 3.097656 -13.0625 3.15625 -12.925781 3.15625 -12.75 C 3.15625 -12.65625 3.132812 -12.550781 3.09375 -12.4375 L 1.84375 -8.421875 C 1.71875 -8.066406 1.488281 -7.890625 1.15625 -7.890625 C 0.988281 -7.890625 0.867188 -7.945312 0.796875 -8.0625 C 0.722656 -8.175781 0.695312 -8.335938 0.71875 -8.546875 Z M 5.046875 -12.5625 C 5.085938 -13.050781 5.359375 -13.296875 5.859375 -13.296875 L 6.4375 -13.296875 C 6.644531 -13.296875 6.804688 -13.25 6.921875 -13.15625 C 7.035156 -13.0625 7.09375 -12.925781 7.09375 -12.75 C 7.09375 -12.65625 7.070312 -12.550781 7.03125 -12.4375 L 5.75 -8.421875 C 5.644531 -8.066406 5.421875 -7.890625 5.078125 -7.890625 C 4.921875 -7.890625 4.804688 -7.945312 4.734375 -8.0625 C 4.671875 -8.1875 4.644531 -8.351562 4.65625 -8.5625 Z M 5.046875 -12.5625 "/></g></g></g><g clip-path="url(#3f322dbb3a)"><path fill="#4f39f6" d="M 138.335938 109.78125 C 135.085938 109.78125 132.4375 112.429688 132.4375 115.679688 L 132.4375 198.261719 C 132.4375 201.511719 135.085938 204.164062 138.335938 204.164062 L 236.652344 204.164062 C 239.902344 204.164062 242.550781 201.511719 242.550781 198.261719 L 242.550781 115.679688 C 242.550781 112.429688 239.902344 109.78125 236.652344 109.78125 Z M 138.335938 113.710938 L 236.652344 113.710938 C 237.734375 113.710938 238.617188 114.59375 238.617188 115.679688 L 238.617188 198.261719 C 238.617188 199.347656 237.734375 200.230469 236.652344 200.230469 L 138.335938 200.230469 C 137.253906 200.230469 136.371094 199.347656 136.371094 198.261719 L 136.371094 133.375 L 216.988281 133.375 C 218.078125 133.375 218.957031 132.492188 218.957031 131.410156 C 218.957031 130.324219 218.078125 129.441406 216.988281 129.441406 L 136.371094 129.441406 L 136.371094 115.679688 C 136.371094 114.59375 137.253906 113.710938 138.335938 113.710938 Z M 144.234375 117.644531 C 143.144531 117.644531 142.269531 118.527344 142.269531 119.609375 L 142.269531 123.542969 C 142.269531 124.625 143.144531 125.511719 144.234375 125.511719 C 145.324219 125.511719 146.203125 124.625 146.203125 123.542969 L 146.203125 119.609375 C 146.203125 118.527344 145.324219 117.644531 144.234375 117.644531 Z M 154.066406 117.644531 C 152.976562 117.644531 152.101562 118.527344 152.101562 119.609375 L 152.101562 123.542969 C 152.101562 124.625 152.976562 125.511719 154.066406 125.511719 C 155.15625 125.511719 156.035156 124.625 156.035156 123.542969 L 156.035156 119.609375 C 156.035156 118.527344 155.15625 117.644531 154.066406 117.644531 Z M 163.898438 117.644531 C 162.808594 117.644531 161.933594 118.527344 161.933594 119.609375 L 161.933594 123.542969 C 161.933594 124.625 162.808594 125.511719 163.898438 125.511719 C 164.988281 125.511719 165.863281 124.625 165.863281 123.542969 L 165.863281 119.609375 C 165.863281 118.527344 164.988281 117.644531 163.898438 117.644531 Z M 173.730469 117.644531 C 172.640625 117.644531 171.765625 118.527344 171.765625 119.609375 L 171.765625 123.542969 C 171.765625 124.625 172.640625 125.511719 173.730469 125.511719 C 174.820312 125.511719 175.695312 124.625 175.695312 123.542969 L 175.695312 119.609375 C 175.695312 118.527344 174.820312 117.644531 173.730469 117.644531 Z M 183.5625 117.644531 C 182.472656 117.644531 181.59375 118.527344 181.59375 119.609375 L 181.59375 123.542969 C 181.59375 124.625 182.472656 125.511719 183.5625 125.511719 C 184.652344 125.511719 185.527344 124.625 185.527344 123.542969 L 185.527344 119.609375 C 185.527344 118.527344 184.652344 117.644531 183.5625 117.644531 Z M 193.394531 117.644531 C 192.300781 117.644531 191.425781 118.527344 191.425781 119.609375 L 191.425781 123.542969 C 191.425781 124.625 192.300781 125.511719 193.394531 125.511719 C 194.484375 125.511719 195.359375 124.625 195.359375 123.542969 L 195.359375 119.609375 C 195.359375 118.527344 194.484375 117.644531 193.394531 117.644531 Z M 203.226562 117.644531 C 202.132812 117.644531 201.257812 118.527344 201.257812 119.609375 L 201.257812 123.542969 C 201.257812 124.625 202.132812 125.511719 203.226562 125.511719 C 204.316406 125.511719 205.191406 124.625 205.191406 123.542969 L 205.191406 119.609375 C 205.191406 118.527344 204.316406 117.644531 203.226562 117.644531 Z M 213.054688 117.644531 C 211.964844 117.644531 211.089844 118.527344 211.089844 119.609375 L 211.089844 123.542969 C 211.089844 124.625 211.964844 125.511719 213.054688 125.511719 C 214.148438 125.511719 215.023438 124.625 215.023438 123.542969 L 215.023438 119.609375 C 215.023438 118.527344 214.148438 117.644531 213.054688 117.644531 Z M 222.886719 117.644531 C 221.796875 117.644531 220.921875 118.527344 220.921875 119.609375 L 220.921875 123.542969 C 220.921875 124.625 221.796875 125.511719 222.886719 125.511719 C 223.976562 125.511719 224.855469 124.625 224.855469 123.542969 L 224.855469 119.609375 C 224.855469 118.527344 223.976562 117.644531 222.886719 117.644531 Z M 232.71875 117.644531 C 231.628906 117.644531 230.753906 118.527344 230.753906 119.609375 L 230.753906 123.542969 C 230.753906 124.625 231.628906 125.511719 232.71875 125.511719 C 233.808594 125.511719 234.6875 124.625 234.6875 123.542969 L 234.6875 119.609375 C 234.6875 118.527344 233.808594 117.644531 232.71875 117.644531 Z M 224.855469 129.441406 C 223.761719 129.441406 222.886719 130.324219 222.886719 131.410156 C 222.886719 132.492188 223.761719 133.375 224.855469 133.375 L 232.71875 133.375 C 233.808594 133.375 234.6875 132.492188 234.6875 131.410156 C 234.6875 130.324219 233.808594 129.441406 232.71875 129.441406 Z M 193.085938 141.261719 C 192.332031 141.378906 191.679688 141.9375 191.488281 142.730469 L 179.691406 189.921875 C 179.421875 190.972656 180.066406 192.042969 181.117188 192.304688 C 181.28125 192.347656 181.441406 192.363281 181.59375 192.363281 C 182.480469 192.363281 183.277344 191.773438 183.5 190.882812 L 195.296875 143.691406 C 195.566406 142.628906 194.921875 141.5625 193.871094 141.300781 C 193.609375 141.234375 193.339844 141.21875 193.085938 141.261719 Z M 169.796875 153.039062 C 169.296875 153.039062 168.792969 153.230469 168.40625 153.613281 L 156.609375 165.410156 C 155.839844 166.179688 155.839844 167.425781 156.609375 168.191406 L 168.40625 179.992188 C 168.792969 180.375 169.289062 180.566406 169.796875 180.566406 C 170.304688 180.566406 170.804688 180.375 171.1875 179.992188 C 171.957031 179.222656 171.957031 177.976562 171.1875 177.210938 L 160.78125 166.800781 L 171.1875 156.394531 C 171.957031 155.625 171.957031 154.382812 171.1875 153.613281 C 170.804688 153.230469 170.296875 153.039062 169.796875 153.039062 Z M 205.191406 153.039062 C 204.691406 153.039062 204.183594 153.230469 203.800781 153.613281 C 203.03125 154.382812 203.03125 155.625 203.800781 156.394531 L 214.207031 166.800781 L 203.800781 177.210938 C 203.03125 177.976562 203.03125 179.222656 203.800781 179.992188 C 204.183594 180.375 204.683594 180.566406 205.191406 180.566406 C 205.699219 180.566406 206.195312 180.375 206.582031 179.992188 L 218.378906 168.191406 C 219.148438 167.425781 219.148438 166.179688 218.378906 165.410156 L 206.582031 153.613281 C 206.195312 153.230469 205.691406 153.039062 205.191406 153.039062 Z M 205.191406 153.039062 " fill-opacity="1" fill-rule="nonzero"/></g></svg>