<svg fill="none" height="40" viewBox="0 0 40 40" width="40" xmlns="http://www.w3.org/2000/svg"><path d="m7.49988 35h5.00002m21.6666 0h-5m-16.6666 0h16.6666m-16.6666 0v-7.5m16.6666 7.5c0-2.7271-.1287-5.2212-.3654-7.5m-16.3012-15v-4.48335c0-1.71251 1.3265-3.18357 2.9928-2.78854 4.1442.98243 9.3405 4.87019 11.9744 14.77189m-14.9672-7.5h15.8333m-15.8333 0v7.5m0 0v7.5m0-7.5h14.9672m-14.9672 7.5h16.3012m0 0c-.2927-2.8177-.7505-5.3064-1.334-7.5" stroke="#000" stroke-linecap="round" stroke-linejoin="round" stroke-width="2"/></svg>