<svg height="512" width="512" xmlns="http://www.w3.org/2000/svg"><path d="m194.2049408 329.2963867c-22.9812927 41.3840332 4.4992981 73.3360596 54.4763031 92.453064v28.0691528h-52.7408905l-17.4946594-60.7532043c-12.1775208-3.1057129-24.2567596-7.7472229-36.0391388-14.0788269l-59.414299 34.7086487-35.3576431-35.357666 32.1224213-60.0131531c-6.2860947-11.0388184-11.1512985-22.7106934-14.5720749-34.7373047l-65.1849595-17.7065125v-50.0900574l64.8365021-19.0444489c3.3286743-12.0869446 8.0897293-23.8344269 14.300827-34.9477081l-32.9759254-58.9558868 35.3576393-35.3577003 59.428299 33.3822594c11.3363647-6.2393951 22.963501-10.9169006 34.6914215-14.1426392l18.3372803-66.8742294h50.0899811l18.869278 68.2760468c11.0263062 3.375 21.6495056 7.926712 31.6786804 13.5394363l62.4001465-35.6540833 35.3576355 35.3576431-35.4750366 62.9934387c9.1016235 16.729126 15.2998352 35.4611206 17.7366333 55.7192688l-62.5748291.000061c-12.5958557-62.3779449-84.6269531-97.8009949-143.0301819-64.1308594-79.5943834 45.8344728-52.3932573 163.5818025 25.1765898 177.3452607zm148.6980743 51.897461c-18.0298767-10.4632568-18.0298767-36.7634888 0-47.2267761 18.0298767-10.4632568 40.6896057 2.6868591 40.6896057 23.6134033 0 20.9265136-22.659729 34.0766296-40.6896057 23.6133728zm103.9620362 28.9842224c19.0138245 84.5610657-20.2017212 115.1062317-89.8516235 52.6367188-71.8040466 63.1875916-109.589447 31.4198914-90.5613708-52.2318115-83.1644897-25.5946045-88.9903717-78.3276978-.6937866-104.946167-19.1477814-90.8321228 28.0881958-110.7885284 91.2757263-51.5502014 67.1367798-62.1104736 108.8396301-33.8638611 90.8886108 51.9419861 81.4975585 26.3281249 89.6549071 73.393402-1.0575562 104.149475zm-78.4982605-144.4566346c9.8764648 10.0271912 16.8166504 18.9304199 24.1953125 29.7196045 14.0048523 1.2748108 25.2732239 3.1539917 39.5039368 6.3639526 14.4807128-66.3247527-11.0548401-87.4362029-63.6992493-36.0835571zm-81.2922364 133.4464417c9.8329163 1.7405396 12.8335876 2.2414246 21.4079285 3.1184082-5.2655945-8.7361755-8.4169312-12.0848999-13.7424011-23.4538574-3.5473633 8.8915405-4.514801 11.5159302-7.6655274 20.3354492zm21.3789673-85.269928c-8.6236877.652771-12.3464355 1.7249146-22.4972839 3.8290405 2.9201355 8.4489441 4.1842041 11.6097412 8.1012573 21.0124207 5.7957153-10.9698792 7.9778748-14.7590027 14.3960266-24.8414612zm21.2882691 90.2976685c19.1419678 1.1992798 35.8128967 1.4048157 54.1916809.0131226 11.0077515-17.1120911 19.5203247-31.2842712 26.2468262-45.1843872-8.9886475-18.1747131-17.2431641-33.0267944-27.2641602-46.9899292-17.8673706-1.3165894-33.8613892-1.3956604-52.1308289-.3450623-10.2962646 14.9137878-18.4819946 29.7328186-27.2613831 47.3153687 8.4722596 16.5130309 16.5160828 30.3275756 26.2178651 45.1908874zm75.5734558-2.2992554c8.980957-.9541016 11.7819214-1.4473877 20.996521-3.3876953-2.9855347-8.7675476-3.9324036-11.4634705-7.4186707-19.9230652-5.6130676 10.5203857-7.4305725 13.786377-13.5778503 23.3107605zm14.0500488-63.122345c3.8960571-8.6454773 4.9857178-11.6429749 8.0357971-20.706665-9.1172485-2.0127869-12.2489929-2.6235962-22.0381775-3.9636841 6.4275208 10.0847473 8.445282 13.7099304 14.0023804 24.6703491zm-62.6464233-60.8773193c-6.181366 7.2260132-7.8807678 9.2361755-12.9373474 15.8865051 11.550354-.4245911 14.9698792-.4452209 26.1514587-.0065613-5.5014648-7.3218689-7.190094-9.3775024-13.2141113-15.8799438zm-75.4275818 23.5445557c14.2307739-3.2099609 25.8338318-5.0844727 39.8386841-6.3592834 7.3786926-10.7891846 14.3179321-19.334259 24.194397-29.3614807-54.7331238-50.2127381-78.3176575-31.7787934-64.0330811 35.7207641zm3.2679748 56.8818359c-5.9060669-12.7605591-10.2599487-23.7089539-14.5718079-36.7932739-70.4876099 20.7035217-66.3744354 52.9957886.6984863 73.5182495 3.9003602-12.3821716 8.1344606-23.5282593 13.8733216-36.7249756zm60.7753907 92.9008179c-9.3200073-9.5963745-16.4405212-18.8392029-24.9134216-30.7967529-14.0818176-1.4981384-25.0709839-2.5043945-37.7563782-5.6159058-18.5876465 72.2230835 14.8619995 83.3103637 62.6697998 36.4126587zm26.2000427-29.5325928c-11.7788086.3000793-16.6086426.2579651-29.4278259-.0121155 5.7509155 8.2714844 8.0646057 11.1280823 14.5596313 17.8538208 6.734314-6.9936828 9.1636658-9.7488708 14.8681946-17.8417053zm59.4635315-7.256897c-13.5774536 3.0973206-24.5089417 4.688324-37.7385864 5.6617432-7.7511292 11.1494141-14.9326782 20.2267761-24.933075 31.0922546 51.4785156 49.0926514 79.3267517 30.8154602 62.6716614-36.7539978zm12.3491821-92.5286865c-4.2514343 13.0842896-8.3977356 23.6558838-14.2211609 36.4164124 5.6585693 13.1967163 9.677887 23.6125488 13.5236206 35.9946899 75.0352478-23.0969849 60.8969422-54.5002441.6975403-72.4111023z"/></svg>