<svg fill="none" height="16" viewBox="0 0 16 16" width="16" xmlns="http://www.w3.org/2000/svg"><g fill="#212121"><path d="m4.50098 2.00122c-1.38072 0-2.5 1.11929-2.5 2.5v5.99998c0 1.3807 1.11928 2.5 2.5 2.5h4.28103c.03253-.2158.10522-.4292.22093-.6296l.21383-.3704h-4.71579c-.82843 0-1.5-.6716-1.5-1.5v-5.50118h9.00002v1.1938c.318-.12569.6569-.19505 1-.20382v-1.48878c0-1.38071-1.1193-2.5-2.5-2.5zm-1.41602 1.99878c.20592-.5826.76154-1 1.41465-1h5.99999c.6531 0 1.2087.4174 1.4147 1z"/><path d="m10.4168 7.70956-1.56215-1.56214c-.19526-.19526-.51184-.19526-.7071 0-.19527.19527-.19527.51185 0 .70711l1.64644 1.64644-1.64645 1.64643c-.19526.1953-.19526.5119.00001.7071.19526.1953.51184.1953.7071 0l1.36805-1.368c-.1202-.58223-.0636-1.2035.1941-1.77694z"/><path d="m6.85392 6.14742c.19526.19526.19526.51185 0 .70711l-1.64645 1.64645 1.64645 1.64642c.19526.1953.19526.5119 0 .7071-.19526.1953-.51184.1953-.70711 0l-2-1.99997c-.09377-.09376-.14644-.22094-.14644-.35355s.05267-.25978.14644-.35355l2-2.00001c.19526-.19526.51185-.19526.70711 0z"/><path d="m12.5225 8.58059.9004-1.55948c-.7739-.14424-1.5883.20271-2.0043.92319-.3869.67009-.3216 1.47717.1012 2.0679l-1.65083 2.8594c-.21977.3806-.08935.8674.29133 1.0871.3806.2198.8674.0894 1.0871-.2913l1.6543-2.8652c.7177.064 1.4412-.2828 1.8252-.94785.4157-.71998.3094-1.59809-.2015-2.19608l-.9001 1.559c-.1759.30452-.5652.40886-.8698.23304-.3045-.17581-.4088-.5652-.233-.86972z"/></g></svg>