<svg height="73" viewBox="0 0 73 73" width="73" xmlns="http://www.w3.org/2000/svg"><g fill="none" fill-rule="nonzero"><rect fill="#fff" height="71" rx="14" stroke="#3a4049" stroke-width="2" width="71" x="1" y="1"/><g transform="translate(16 13)"><g fill="#656d78"><path d="m21.00075 27.38625c-.41475 0-.75-.33525-.75-.75v-3.73875c0-.41475.33525-.75.75-.75s.75.33525.75.75v3.73875c0 .414-.33525.75-.75.75z"/><path d="m5.99925 19.8975c-.41475 0-.75-.33525-.75-.75v-9.0345c0-.41475.33525-.75.75-.75s.75.33525.75.75v9.0345c0 .41475-.33525.75-.75.75z"/><path d="m36.00975 19.89675c-.41475 0-.75-.33525-.75-.75v-9.0345c0-.41475.33525-.75.75-.75s.75.33525.75.75v9.0345c0 .41475-.336.75-.75.75z"/><path d="m21.00075 16.14675c-.41475 0-.75-.33525-.75-.75v-4.50375c0-.41475.33525-.75.75-.75s.75.33525.75.75v4.50375c0 .41475-.33525.75-.75.75z"/></g><path d="m36.00825 10.14975h-5.2575v-9h3.75l.75 1.5h6v7.5z" fill="#ffce54"/><path d="m22.50075 8.64975h-3-3c-.4125 0-.75-.3375-.75-.75v-6c0-.4125.3375-.75.75-.75h9c.4125 0 .75.3375.75.75v6c0 .4125-.3375.75-.75.75z" fill="#5d9cec"/><path d="m22.50075 8.64975.75 2.24175h-2.25-2.25l.75-2.24175z" fill="#ccd1d9"/><path d="m25.4985.40125h-8.9955c-.82725 0-1.5.67275-1.5 1.5v5.997c0 .82725.67275 1.5 1.5 1.5h8.9955c.82725 0 1.5-.67275 1.5-1.5v-5.997c0-.8265-.67275-1.5-1.5-1.5zm-.003 7.497h-8.9925v-5.997h8.9955z" fill="#e6e9ed"/><path d="m23.25 11.643h-4.4985c-.41475 0-.75-.33525-.75-.75s.33525-.75.75-.75h4.4985c.41475 0 .75.33525.75.75s-.33525.75-.75.75z" fill="#e6e9ed"/><path d="m41.2485 10.896h-10.4985c-.41475 0-.75-.33525-.75-.75v-8.99925c0-.41475.33525-.75.75-.75h3.75075c.28425 0 .5445.1605.67125.41475l.543 1.08675h5.53425c.41475 0 .75.33525.75.75v7.49775c-.00075.41475-.336.75-.75075.75zm-9.7485-1.5h8.9985v-5.99775h-5.24775c-.28425 0-.5445-.1605-.67125-.41475l-.543-1.08675h-2.5365z" fill="#ffce54"/><path d="m17.25825 19.8975h-11.259c-.41475 0-.75-.33525-.75-.75s.33525-.75.75-.75h11.259c.41475 0 .75.33525.75.75s-.336.75-.75.75z" fill="#656d78"/><path d="m36.00975 19.89675h-11.259c-.41475 0-.75-.33525-.75-.75s.33525-.75.75-.75h11.259c.41475 0 .75.33525.75.75s-.336.75-.75.75z" fill="#656d78"/><path d="m11.25075 29.6325h19.5v18h-19.5z" fill="#656d78"/><path d="m11.25075 35.6325h19.5v6h-19.5z" fill="#545c66"/><path d="m28.50075 26.6325 2.25 3h-19.5l2.25-3z" fill="#545c66"/><path d="m27.77325 33.756c-.62025 0-1.128-.50175-1.128-1.122s.4965-1.122 1.116-1.122h.012c.6195 0 1.122.50175 1.122 1.122s-.5025 1.122-1.122 1.122z" fill="#5d9cec"/><path d="m13.5 34.134c-.192 0-.384-.0735-.53025-.21975-.29325-.29325-.29325-.76725 0-1.0605l1.5-1.5c.29325-.29325.76725-.29325 1.0605 0s.29325.76725 0 1.0605l-1.5 1.5c-.14625.14625-.33825.21975-.53025.21975z" fill="#545c66"/><path d="m17.25 34.134c-.192 0-.384-.0735-.53025-.21975-.29325-.29325-.29325-.76725 0-1.0605l1.5-1.5c.29325-.29325.76725-.29325 1.0605 0s.29325.76725 0 1.0605l-1.5 1.5c-.14625.14625-.33825.21975-.53025.21975z" fill="#545c66"/><path d="m21 34.134c-.192 0-.384-.0735-.53025-.21975-.29325-.29325-.29325-.76725 0-1.0605l1.5-1.5c.29325-.29325.76725-.29325 1.0605 0s.29325.76725 0 1.0605l-1.5 1.5c-.14625.14625-.33825.21975-.53025.21975z" fill="#545c66"/><path d="m27.77325 39.756c-.62025 0-1.128-.50175-1.128-1.122s.4965-1.122 1.116-1.122h.012c.6195 0 1.122.50175 1.122 1.122s-.5025 1.122-1.122 1.122z" fill="#5d9cec"/><path d="m13.5 40.134c-.192 0-.384-.0735-.53025-.21975-.29325-.29325-.29325-.76725 0-1.0605l1.5-1.5c.29325-.29325.76725-.29325 1.0605 0s.29325.76725 0 1.0605l-1.5 1.5c-.14625.14625-.33825.21975-.53025.21975z" fill="#434a54"/><path d="m17.25 40.134c-.192 0-.384-.0735-.53025-.21975-.29325-.29325-.29325-.76725 0-1.0605l1.5-1.5c.29325-.29325.76725-.29325 1.0605 0s.29325.76725 0 1.0605l-1.5 1.5c-.14625.14625-.33825.21975-.53025.21975z" fill="#434a54"/><path d="m21 40.134c-.192 0-.384-.0735-.53025-.21975-.29325-.29325-.29325-.76725 0-1.0605l1.5-1.5c.29325-.29325.76725-.29325 1.0605 0s.29325.76725 0 1.0605l-1.5 1.5c-.14625.14625-.33825.21975-.53025.21975z" fill="#434a54"/><path d="m27.77325 45.756c-.62025 0-1.128-.50175-1.128-1.122s.4965-1.122 1.116-1.122h.012c.6195 0 1.122.50175 1.122 1.122s-.5025 1.122-1.122 1.122z" fill="#5d9cec"/><path d="m13.5 46.134c-.192 0-.384-.0735-.53025-.21975-.29325-.29325-.29325-.76725 0-1.0605l1.5-1.5c.29325-.29325.76725-.29325 1.0605 0s.29325.76725 0 1.0605l-1.5 1.5c-.14625.14625-.33825.21975-.53025.21975z" fill="#545c66"/><path d="m17.25 46.134c-.192 0-.384-.0735-.53025-.21975-.29325-.29325-.29325-.76725 0-1.0605l1.5-1.5c.29325-.29325.76725-.29325 1.0605 0s.29325.76725 0 1.0605l-1.5 1.5c-.14625.14625-.33825.21975-.53025.21975z" fill="#545c66"/><path d="m21 46.134c-.192 0-.384-.0735-.53025-.21975-.29325-.29325-.29325-.76725 0-1.0605l1.5-1.5c.29325-.29325.76725-.29325 1.0605 0s.29325.76725 0 1.0605l-1.5 1.5c-.14625.14625-.33825.21975-.53025.21975z" fill="#545c66"/><path d="m11.23425 1.88025v1.485h-10.46925-.015v-1.5h.0075c0-.4125.33-.75.7425-.75h.015 4.4925 4.47c.4125 0 .75.3375.7575.75v.015z" fill="#ccd1d9"/><path d="m11.25 3.36525v6.75h-10.485v-6.75h10.46925z" fill="#e6e9ed"/><g fill="#ccd1d9"><path d="m.75075 2.61525c-.414 0-.74775-.3375-.74775-.75225 0-.825.67125-1.4955 1.49625-1.4955.41475 0 .75.33525.75.75s-.33525.75-.75.75c0 .41475-.33375.74775-.7485.74775z"/><path d="m.7515 4.8675c-.41475 0-.75-.33525-.75-.75v-2.2515c0-.41475.33525-.75.75-.75s.75.33525.75.75v2.2515c0 .41475-.33525.75-.75.75z"/><path d="m11.2365 2.6295c-.41475 0-.75-.33525-.75-.75 0-.006-.00525-.012-.0135-.012-.41475 0-.75-.33525-.75-.75s.33525-.75.75-.75c.834 0 1.5135.678 1.5135 1.512 0 .41475-.33525.75-.75.75z"/><path d="m11.235 4.8675c-.41475 0-.75-.33525-.75-.75v-2.2515c0-.41475.33525-.75.75-.75s.75.33525.75.75v2.2515c0 .41475-.33525.75-.75.75z"/><path d="m10.47375 1.8675h-8.96025c-.41475 0-.75-.33525-.75-.75s.33525-.75.75-.75h8.96025c.41475 0 .75.33525.75.75s-.33525.75-.75.75z"/><path d="m8.99775 6.36675h-5.9985c-.41475 0-.75-.33525-.75-.75s.33525-.75.75-.75h5.9985c.41475 0 .75.33525.75.75s-.33525.75-.75.75z"/><path d="m6.7455 8.61675h-1.494c-.41475 0-.75-.33525-.75-.75s.33525-.75.75-.75h1.494c.41475 0 .75.33525.75.75s-.33525.75-.75.75z"/></g><path d="m11.2485 10.86375h-10.4835c-.41475 0-.75-.33525-.75-.75v-6.74775c0-.41475.33525-.75.75-.75h10.48425c.41475 0 .75.33525.75.75v6.74775c-.00075.41475-.336.75-.75075.75zm-9.7335-1.5h8.98425v-5.24775h-8.98425z" fill="#e6e9ed"/><path d="m.015 2.61525h11.98425v.75075h-11.98425z" fill="#e6e9ed"/><path d="m21.00075 23.27475c-2.277 0-4.125-1.848-4.125-4.125 0-2.286 1.848-4.125 4.125-4.125s4.125 1.839 4.125 4.125c0 2.277-1.848 4.125-4.125 4.125z" fill="#ed5565"/><path d="m21.00075 21.396c-.41475 0-.75-.33525-.75-.75v-1.49925c0-.41475.33525-.75.75-.75s.75.33525.75.75v1.49925c0 .41475-.33525.75-.75.75z" fill="#da4453"/><path d="m21.02325 18.396c-.41475 0-.75375-.33525-.75375-.75s.3315-.75.7455-.75h.00825c.414 0 .75.33525.75.75s-.336.75-.75.75z" fill="#da4453"/></g></g></svg>