<svg height="297mm" viewBox="0 0 744.09448819 1052.3622047" width="210mm" xmlns="http://www.w3.org/2000/svg" xmlns:xlink="http://www.w3.org/1999/xlink"><linearGradient id="a" gradientUnits="userSpaceOnUse" x1="226.360001" x2="553.59998" y1="722.36219" y2="340.542199"><stop offset="0" stop-color="#4e505d"/><stop offset="1" stop-color="#7a859c"/></linearGradient><path d="m190 322.3622h400.00146v399.99998h-400.00146z" fill="none"/><path d="m224.6543 336.36133c-11.47667 0-20.7168 9.24012-20.7168 20.71679v62.14649c0 11.47667 9.24013 20.7168 20.7168 20.7168h19.88476v30.85742h-19.50976c-11.47667 0-20.7168 9.24013-20.7168 20.71679v62.14649c0 11.47667 9.24013 20.7168 20.7168 20.7168h19.50976v30.41992h-19.50976c-11.47667 0-20.7168 9.24013-20.7168 20.71679v62.14649c0 11.47667 9.24013 20.7168 20.7168 20.7168h123.98828c-28.7625-18.73723-45.65172-39.45079-48.08399-42.48829-.0047-.0057-.00672-.00671-.01171-.01171-.00501-.006-.00082-.00277-.00782-.00977-.0109-.0115-.03125-.03125-.03125-.03125a17.50175 17.50175 0 0 1 -.10937-.12305c.09132.1015.11742.1292.14062.1543-.0129-.0161-.06417-.0768-.07617-.0918-.11305-.12499-.17714-.18594-.31641-.34765a17.50175 17.50175 0 0 1 -1.37109-1.74024c-.00432-.00607-.00753-.00791-.01172-.01367.26219.38275.31875.45456.00586.01563a17.50175 17.50175 0 0 1 -.51562-.76368l-.02735-.04296.53711.78906c-.37217-.51942-.60166-.88482-.8125-1.22071a17.50175 17.50175 0 0 1 -.77734-1.28124c-.05204-.09621-.24082-.45085-.49414-.98047-.09697-.19266-.16113-.3118-.34961-.71875-.3189-.68832-.59138-1.34543-.81446-1.95118a17.50175 17.50175 0 0 1 -.05664-.1582l-.00976-.02734a17.50175 17.50175 0 0 1 -.42578-1.41797c-.2569-.8857-.50873-1.87884-.68946-3.08985.16029 1.0809.1302.97557-.06054-.31445-.12475-.847-.18265-1.55771-.21485-2.10937a17.50175 17.50175 0 0 1 -.01367-.27735l-.00976-.23047a17.50175 17.50175 0 0 1 -.01368-.51367c-.0043-.33104-.02069-.99455.03711-1.98633l-.02148.72071a17.50175 17.50175 0 0 1 .12109-1.67969c.00189-.01941.00201-.01793.00391-.03711a17.50175 17.50175 0 0 1 .08008-.74414c.0055-.03474.02487-.18228.07617-.48437l-.15625 1.22851c.08953-.90222.19836-1.56349.22851-1.74023a17.50175 17.50175 0 0 1 .17383-.81055c.28309-1.38069.67376-2.71579 1.16211-3.98438a17.50175 17.50175 0 0 1 .07617-.19335c.11899-.29846.41629-1.08891 1.02539-2.2461l-.16601.32422.07031-.14062a17.50175 17.50175 0 0 1 .07813-.1543c.0047-.0091.01258-.0203.01757-.0293.32516-.63269.72967-1.33468 1.18946-2.05273.4036-.6399.84024-1.28945 1.3418-1.94141a17.50175 17.50175 0 0 1 .98828-1.17383s.10789-.1177.2207-.24023c.0054-.0059.01062-.01158.01562-.01758 1.74939-2.18207 11.25279-13.80499 27.43555-27.20117h-60.17383v-30.41992h108.57618c20.53149-9.25181 44.80468-15.94103 72.32031-16.23243a17.50175 17.50175 0 0 1 1.83398-.10156c33.06322 0 61.50019 9.27424 84.46875 21.26758v-4.93359h19.55469c11.47667 0 20.7168-9.24013 20.7168-20.7168v-62.14649c0-11.47667-9.24013-20.71679-20.7168-20.71679h-19.55469v-30.85742h19.17969c11.47667 0 20.7168-9.24013 20.7168-20.7168v-62.14649c0-11.47667-9.24013-20.71679-20.7168-20.71679zm43.5664 103.58008h243.51953v30.85742h-243.51953zm142.68555 164.85742a17.50175 17.50175 0 0 1 -4.10156 13.97461c-7.65982 8.7681-11.62329 19.29685-11.64649 30.08594.01246 10.88043 4.03183 21.4976 11.80469 30.31054a17.50175 17.50175 0 0 1 2.6875 19.01953c12.70958 4.05179 26.5094 6.67383 41.28711 6.67383 14.18004 0 27.47637-2.38226 39.75391-6.14258a17.50175 17.50175 0 0 1 2.86523-19.09375c8.03919-8.8954 12.20384-19.697 12.21484-30.77539-.01542-10.97684-4.10841-21.68352-12.01367-30.53515a17.50175 17.50175 0 0 1 -4.31445-13.51758zm-110.22461 27.53125-.01758.01758-.20508.25c.02138-.02673.19436-.23218.22266-.26758zm-5.54883 10.66601-.13867.59961a17.50175 17.50175 0 0 1 .08203-.38086zm26.14844 4.98633c-3.71414 2.98244-7.50197 6.02537-7.50195 6.02539 0 0 3.82138-1.91747 7.63867-3.83398-.034-.60953-.21042-1.12385-.19922-1.76172.0028-.157.0565-.27461.0625-.42969zm219.46875.37891c.0011.15765.02327.31296.02344.4707a17.50175 17.50175 0 0 1 0 .0293c-.0001.23433-.03121.46509-.03321.69922.2344-.20518.44323-.40139.67383-.60547-.22683-.20075-.43356-.39195-.66406-.59375zm32.33398 3.94336.07032.18164c.02395.06504.1169.27861.1875.44531.0047.0102.00867.01539.01367.02539a17.50175 17.50175 0 0 1 -.27149-.65234zm.07032.18164.03906.10742.00586.01172a17.50175 17.50175 0 0 1 -.04492-.11914zm-273.50391 11.82031c-.0001 0-.01367.00977-.01367.00977l.49609.64843c-.00008-.0001.18518.22031.30469.36328a17.50175 17.50175 0 0 1 -.78711-1.02148zm275.65625 27.34375c-6.38262 5.40544-13.878 11.15053-22.43945 16.72852h2.10742c10.11135 0 18.4824-7.17333 20.33203-16.72852z" fill="url(#a)"/><g fill="#fff"><rect height="21" ry="10.5" width="78.903175" x="224" y="396.36224"/><path d="m234.83984 664.79883c-5.817 0-10.5 4.683-10.5 10.5s4.683 10.5 10.5 10.5h57.9043c.7163 0 1.41457-.07164 2.08984-.20703-3.5307-3.84627-5.87463-6.6994-6.96679-8.05469a17.50175 17.50175 0 0 1 -.00977-.00977c-.0277-.0308-.05443-.06275-.08203-.09375.0026.0029-.01372-.01371-.01172-.01171-.0417-.04683-.0836-.09353-.125-.14063a17.50175 17.50175 0 0 1 -.08398-.09766c-.0173-.0193-.02432-.02963-.04492-.05273-.09901-.11117-.10573-.11732-.22071-.25-.0174-.0194-.00603-.00519-.02344-.02539-.00299-.00332-.0009-.00091-.0039-.00391a17.50175 17.50175 0 0 1 -.18164-.22461 17.50175 17.50175 0 0 1 -.07031-.07422c-.0078-.0094-.02225-.0258-.03125-.03711 0 0-.00196-.00195-.00196-.00195-.04302-.0514-.09412-.11257-.14062-.16797-.0287-.0341-.05437-.06463-.07227-.08593l.01172-.00977c-.17831-.21879-.34462-.4469-.51758-.66992l-.02343.01953-.4961-.64844a17.50175 17.50175 0 0 1 -.32617-.46875c-.003-.004-.00581-.00676-.00781-.00976a17.50175 17.50175 0 0 1 -.02539-.03711 17.50175 17.50175 0 0 1 -.11719-.16797c-.06196-.08568-.13607-.16175-.19727-.24805-.0001 0-.02928.01952-.02929.01953l-.00586.00196c-.0105-.0151-.01153-.01379-.01953-.0254-.01442-.02047-.05343-.07459-.10743-.15039-.0417-.05834-.07979-.11913-.12109-.17773.0017.00043-.04883-.07074-.08203-.11914a17.50175 17.50175 0 0 1 -.0293-.04688l-.53711-.7871.00586-.00196c-.08704-.13252-.18042-.26083-.26562-.39453a17.50175 17.50175 0 0 1 -.00196-.00391l-.02734-.04296a17.50175 17.50175 0 0 1 -.08594-.1504c-.0128-.02019-.04278-.06518-.05469-.08398-.52849-.79865-1.02897-1.61577-1.49023-2.45508a17.50175 17.50175 0 0 1 -.05664-.10156c.18956.35044-.30681-.6288-.28711-.5918a17.50175 17.50175 0 0 1 -.16602-.28125c.00446.00861-.20253-.42236-.27343-.5625l-.00391.00196-.11719-.24805c-.16749-.33504-.23425-.45061-.48242-.98633-.07731-.16687-.13233-.33186-.20703-.49805-.23037-.5126-.45165-1.02372-.66406-1.53515zm53.75 13.49023c-.00167-.0033.10547.10742.10547.10742a17.50175 17.50175 0 0 1 -.08593-.08984 17.50175 17.50175 0 0 1 -.01954-.01758z"/><rect height="21" ry="10.5" width="78.903175" x="224.34009" y="530.79968"/><ellipse cx="495.21033" cy="631.40973" rx="24.433897" ry="22.298897"/></g><ellipse cx="450.46539" cy="648.84949" fill="#99b000" rx="72.808853" ry="66.717262"/><ellipse cx="490.49512" cy="622.46619" fill="#fff" rx="23.416098" ry="23.849733"/><path d="m450.93783 575.55862c-81.95863 0-135.37607 66.1754-136.81096 67.96967l-.0848.0989c-.0144.0144-.43653.47467-.43653.47467-.16519.21473-.31928.43651-.46193.6668-.14128.21613-.26701.43793-.38426.66676l-.0705.14129c-.0989.18789-.17798.38144-.2557.57638-.15391.39981-.27408.81089-.35883 1.23045l-.0565.21755c-.0282.16538-.0565.33342-.0705.50012-.0144.0848-.0282.1794-.0424.2698v.0424c-.0144.24724-.0144.49588-.0112.7431l.0112.23027c.0112.19213.0282.38426.0565.57636.0144.0989.0424.18931.0565.28254.0565.37861.15248.75157.26983 1.11605l.0144.0848.0112.0282c.0848.23027.178.45771.28254.67949.0565.12703.12704.25852.19212.38425.0424.0989.0989.20626.15392.30798l.0282.0424c.12704.20625.2557.40686.39696.60178l.0282.0424c.0705.0989.14128.18929.20483.28252 0 0 .17798.1893.1794.19213.0848.0989.17801.19919.26982.29527 1.22055 1.52894 54.76024 68.05936 136.88795 68.05936 81.95875 0 135.37607-66.17541 136.81111-67.96968l.0282-.0282.0706-.0705c.0144-.0144.43651-.47465.43651-.47465.16537-.21474.31926-.43654.46196-.66681.12705-.20342.25713-.41391.37153-.62866l.0282-.0565.0565-.12705c.0989-.1893.1794-.38144.25709-.57636.15391-.39984.27408-.81093.35883-1.23048l.0565-.21757c.0282-.16538.0565-.33341.0705-.50006.0144-.0848.0282-.17942.0424-.26984v-.0424c.0144-.243.0144-.48736.0112-.73035v-.0565l-.0112-.19213c-.0112-.19213-.0282-.38426-.0565-.57637-.0144-.0989-.0424-.18932-.0565-.28256-.0565-.37859-.1512-.75157-.26841-1.11605l-.0144-.0705-.0144-.0424c-.0848-.23024-.17798-.45771-.28252-.67949l-.0144-.0424c-.0989-.22322-.21191-.44077-.33339-.65408l-.0282-.0424c-.12703-.20628-.25568-.40688-.39696-.60183l-.0282-.0424c-.0706-.0989-.14128-.1893-.20484-.28255 0 0-.17799-.18931-.17942-.19212-.0848-.0989-.178-.19919-.26979-.29525-1.22045-1.52887-54.76016-68.05927-136.88797-68.05927zm108.01963 81.161c-19.02948 18.24486-54.60402 45.35719-108.01963 45.35719-53.41551 0-88.99004-27.11233-108.01949-45.35719-5.7689-6.42975-5.4372-9.72599 0-15.52455 19.02945-18.24484 54.60398-45.35719 108.01949-45.35719 53.41561 0 88.99015 27.11235 108.01963 45.35719 4.32682 4.24207 5.00912 10.2552 0 15.52455z" fill="#99b000" fill-rule="evenodd"/></svg>